<?xml version="1.0" encoding="utf-8" ?>
<svg xmlns="http://www.w3.org/2000/svg" xmlns:xlink="http://www.w3.org/1999/xlink" width="1024" height="512">
	<path fill="#BB4040" transform="scale(0.5 0.5)" d="M991.102 0L1065.73 0C1093.83 4.05528 1125.52 4.2747 1154.56 7.69818Q1169.73 9.42562 1184.84 11.6528Q1199.94 13.8799 1214.97 16.6044Q1229.99 19.3288 1244.91 22.5476Q1259.84 25.7664 1274.65 29.4759Q1289.46 33.1855 1304.14 37.3819Q1318.82 41.5782 1333.36 46.2568Q1347.89 50.9353 1362.26 56.091Q1376.64 61.2467 1390.83 66.8738C1397.68 69.6463 1426.94 80.9818 1430.54 85.3324C1430.65 85.457 1430.72 85.6048 1430.81 85.741C1448.66 79.2099 1465.52 71.3081 1484 66.3363C1538.14 51.7699 1595.06 45.4786 1650.78 40.5475C1687.01 37.3421 1724.26 33.9332 1760.56 37.7145Q1764.65 38.1006 1768.73 38.6592Q1772.8 39.2178 1776.85 39.9479Q1780.9 40.678 1784.91 41.5784Q1788.92 42.4787 1792.89 43.5477Q1796.86 44.6167 1800.78 45.8524Q1804.71 47.0881 1808.57 48.4883Q1812.44 49.8886 1816.24 51.4508Q1820.05 53.013 1823.78 54.7345C1886.5 83.8324 1929.39 144.739 1952.48 208.219C1992.17 317.379 1983.3 446.511 1934.39 551.193C1927.8 565.303 1905.65 608.766 1894.04 615.464Q1937.14 616.384 1980.24 616.782C1996.84 616.942 2016.13 615.32 2032.33 618.629Q2033.08 618.778 2033.81 618.986Q2034.54 619.193 2035.26 619.458Q2035.98 619.722 2036.67 620.042Q2037.36 620.362 2038.02 620.735Q2038.69 621.108 2039.32 621.532Q2039.96 621.956 2040.56 622.429Q2041.15 622.901 2041.71 623.42Q2042.27 623.938 2042.79 624.498C2045.71 627.633 2047.51 631.68 2047.26 636.004C2047.02 640.243 2044.96 644.777 2041.77 647.612C2032.44 655.875 1953.98 692.093 1937.11 699.952C1927.51 704.423 1915.75 708.351 1907.24 714.65C1904.94 716.349 1903.66 717.797 1902.83 720.583C1903.07 723.998 1904.43 726.055 1906.95 728.218C1914.08 734.321 1925.97 737.66 1934.71 741.223L2000.9 768.456C2012.43 773.24 2026.94 777.536 2036.98 784.772C2041.14 787.773 2045 792.317 2045.42 797.643C2045.75 801.837 2043.66 805.684 2040.83 808.629C2036.88 812.738 2031.99 814.408 2026.45 815.092C2011.58 816.926 1995.86 816.308 1980.86 816.721L1904.55 819.438L1777.83 824.368C1753.34 825.353 1728.64 826.962 1704.12 827.016C1695.6 827.035 1677.27 827.527 1671 820.98C1663.13 812.75 1672.6 791.403 1666.27 780.929L1641.36 780.942C1640.34 785.72 1633.56 792.3 1630.2 796.2C1598.17 833.375 1558.32 865.857 1517.25 892.518C1413.91 959.606 1295.17 996.039 1173.95 1013.66Q1140.28 1018.26 1106.42 1021.19C1095.09 1022.13 1081.94 1021.57 1070.95 1024L981.24 1024C970.114 1022.03 958.393 1021.94 947.102 1021.05C751.925 1005.6 547.221 933.37 417.111 780.879L379.641 780.898C380.282 791.392 384.714 807.786 380.85 817.541C379.554 820.814 376.54 822.534 373.431 823.847C364.873 827.462 353.577 827.431 344.431 827.412C326.659 827.376 308.707 825.978 290.949 825.153Q241.235 822.717 191.499 820.804Q129.731 818.294 67.9372 816.532C55.731 816.096 43.3802 816.691 31.2161 815.916C26.7766 815.632 22.1653 814.89 18.0576 813.123C14.0785 811.411 10.7265 808.65 9.13858 804.527C6.64342 798.049 8.61925 792.298 13.3321 787.511C32.201 768.344 140.765 738.447 146.524 723.46C147.182 721.749 147.411 720.052 146.404 718.363C142.96 712.588 46.9009 667.925 32.1285 660.675C24.9197 657.137 16.853 654.358 10.2391 649.813C6.5818 647.3 3.4479 644.213 1.86213 639.987C0.617275 636.669 0.0820568 631.323 1.78608 628.092C4.70871 622.551 11.7458 619.997 17.4856 618.765C34.1381 615.189 54.6849 617.029 71.8524 616.842C95.0919 616.587 118.307 615.819 141.54 615.373C147.651 615.256 158.619 616.881 163.945 614.775C166.619 613.718 167.195 612.352 168.279 609.919C167.902 608.149 167.94 606.919 166.377 605.773C157.873 599.534 122.163 598.855 108.462 584.163C105.792 581.3 104.113 577.78 104.322 573.812C104.81 564.501 113.596 557.621 119.84 551.775C120.312 532.351 117.9 512.295 115.639 493.014C111.21 489.159 107.898 485.042 104.474 480.321L110.586 471.445C109.223 462.853 108.508 454.375 109.71 445.721C112.479 425.783 124.208 408.584 140.03 396.543C140.94 392.09 141.705 387.124 143.347 382.888C152.797 358.512 200.4 340.086 223.135 330.499C225.326 308.585 227.698 286.765 232.364 265.215C248.892 188.872 288.946 110.922 356.176 67.7892Q360.464 65.0274 364.886 62.4866Q369.308 59.9459 373.854 57.6329Q378.399 55.3198 383.056 53.2404Q387.713 51.161 392.47 49.3205Q397.226 47.4801 402.07 45.8834Q406.914 44.2867 411.832 42.9378Q416.751 41.5889 421.731 40.4914Q426.712 39.3938 431.742 38.5504C482.234 30.4745 537.779 38.9724 588.276 44.8001C621.699 48.6573 655.883 52.4286 688.78 59.5926C757.359 31.113 840.76 14.7841 914.381 6.62473C939.743 3.81395 965.955 3.61465 991.102 0ZM337.011 100.838C334.211 101.481 332.144 104.246 330.608 106.577L329.852 107.211L328.707 108.314L327.739 109.257L326.713 110.257L325.673 111.209L325.137 111.833L325.673 111.209L326.713 110.257L327.739 109.257L328.707 108.314L329.852 107.211L330.608 106.577C333.073 105.212 335.912 103.534 337.011 100.838C342.142 98.1793 347.08 93.9717 351.839 90.6731Q357.917 86.3779 364.33 82.6019Q370.743 78.8259 377.447 75.5951C438.783 46.3851 505.312 54.5837 563.11 87.5878C567.135 89.8863 588.878 105.604 591.846 105.752L592.653 103.725C547.282 69.5041 498.755 48.223 440.855 53.4724C407.581 56.489 358.833 74.7472 337.011 100.838ZM703.213 122.132L702.005 122.757L703.213 122.132C718.23 119.916 733.387 114.792 748.066 110.935Q781.077 102.37 814.522 95.6946Q825.663 93.4742 836.847 91.4827Q848.03 89.4912 859.253 87.7296Q870.475 85.9679 881.731 84.4368Q892.987 82.9058 904.272 81.6059Q915.558 80.306 926.867 79.2379Q938.177 78.1698 949.505 77.3339Q960.834 76.498 972.178 75.8946Q983.522 75.2912 994.876 74.9207Q1006.23 74.5501 1017.59 74.4126Q1028.95 74.275 1040.31 74.3704Q1051.67 74.4659 1063.02 74.7943Q1074.38 75.1227 1085.72 75.684Q1097.07 76.2453 1108.4 77.0392Q1119.73 77.8331 1131.05 78.8592Q1142.36 79.8854 1153.65 81.1434Q1164.94 82.4014 1176.2 83.8907C1216.24 89.4192 1255.23 97.3807 1294.39 107.339Q1314.44 112.452 1334.33 118.164C1339.8 119.688 1346.31 122.303 1351.89 122.926L1353.65 123.809L1351.89 122.926C1351.5 122.445 1351.23 122.067 1350.68 121.751C1336.7 113.584 1274.6 97.2666 1256.35 92.6245C1069.63 45.127 884.371 58.6297 703.213 122.132ZM764.145 147.971L763.005 148.742L764.145 147.971C784.171 146.548 804.214 142.369 824.194 140.087Q883.198 133.706 942.453 130.401Q974.373 128.704 1006.33 128.232Q1038.3 127.76 1070.25 128.515Q1102.21 129.27 1134.11 131.25Q1166.02 133.23 1197.82 136.432C1227.6 139.414 1256.98 144.654 1286.66 147.972L1290.31 148.835C1289.17 148.229 1287.92 148.167 1286.66 147.972C1278.25 142.971 1238.32 138.049 1225.52 135.963Q1211.2 133.663 1196.82 131.695Q1182.45 129.728 1168.04 128.093Q1153.62 126.459 1139.18 125.158Q1124.73 123.858 1110.25 122.893Q1095.78 121.927 1081.29 121.297Q1066.8 120.667 1052.29 120.373Q1037.79 120.079 1023.28 120.12Q1008.78 120.162 994.275 120.539Q979.773 120.917 965.285 121.63Q950.796 122.343 936.327 123.391Q921.859 124.44 907.419 125.823Q892.979 127.206 878.574 128.923Q864.17 130.64 849.809 132.69Q835.448 134.74 821.139 137.122Q806.83 139.504 792.579 142.216Q778.329 144.929 764.145 147.971ZM1885.86 147.147L1886.43 148.175C1887.92 152.562 1889.16 158.068 1886.98 162.448C1885.04 166.354 1880.62 168.145 1876.64 169.264C1872.9 170.317 1868.94 169.815 1865.12 169.45C1875.46 180.651 1883.84 194.353 1891.12 207.69C1919.83 260.259 1930.64 319.518 1928.23 378.998C1926.32 426.018 1915 470.658 1896.17 513.653C1892.38 522.306 1887.18 535.311 1880.15 541.68C1879.89 541.913 1879.63 542.138 1879.35 542.349C1884.09 545.294 1888.03 549.677 1889.29 555.236C1891.06 563.009 1887.73 571.489 1885.47 578.854L1884.82 579.995L1885.47 578.854C1888.03 577.189 1889.57 574.382 1891.15 571.844C1902.31 553.886 1911.34 533.532 1918.93 513.796Q1920.4 510.027 1921.8 506.231Q1923.2 502.435 1924.53 498.614Q1925.86 494.792 1927.12 490.947Q1928.37 487.102 1929.56 483.233Q1930.74 479.365 1931.86 475.476Q1932.97 471.586 1934.01 467.677Q1935.05 463.767 1936.02 459.839Q1936.99 455.91 1937.88 451.965Q1938.78 448.019 1939.6 444.058Q1940.42 440.096 1941.17 436.12Q1941.91 432.144 1942.59 428.154Q1943.26 424.165 1943.86 420.164Q1944.46 416.162 1944.98 412.151Q1945.51 408.139 1945.96 404.118Q1946.4 400.097 1946.78 396.069Q1947.15 392.04 1947.45 388.006Q1947.75 383.971 1947.98 379.931Q1948.2 375.892 1948.35 371.849Q1948.5 367.806 1948.57 363.761Q1948.64 359.716 1948.64 355.67Q1948.64 351.624 1948.56 347.579Q1948.49 343.534 1948.33 339.491Q1948.18 335.448 1947.95 331.409Q1947.73 327.369 1947.42 323.335Q1947.12 319.3 1946.74 315.272Q1946.37 311.244 1945.91 307.224Q1945.46 303.203 1944.93 299.192Q1944.41 295.181 1943.8 291.18Q1943.2 287.179 1942.52 283.191Q1941.85 279.202 1941.1 275.226Q1940.35 271.251 1939.52 267.29Q1938.7 263.329 1937.8 259.384C1930.03 225.977 1916.94 191.363 1898.21 162.51C1895.2 157.871 1891.14 151.114 1886.43 148.175L1885.86 147.147ZM305.77 308.725C306.711 290.165 310.491 271.095 316.204 253.43C329.628 211.925 357.347 172.733 396.854 152.657C422.55 139.6 452.326 135.536 480.319 142.868C489.942 145.388 498.952 149.32 508.378 152.386L509.285 153.134L511.458 154.292L511.995 154.748L511.458 154.292L509.285 153.134L508.378 152.386C497.816 143.39 479.844 138.175 466.408 135.908C434.202 130.476 402.363 139.226 376.04 158.142C329.363 191.685 303.023 250.976 294.037 306.276C293.863 308.238 293.814 308.151 295.008 309.712C298.682 310.004 302.157 309.33 305.77 308.725ZM1696.95 154.002L1695.44 155.001L1693.48 156.097L1692.57 156.932L1690.48 158.078L1689.68 158.792L1690.48 158.078L1692.57 156.932L1693.48 156.097L1695.44 155.001L1696.95 154.002C1702.43 153.639 1709.92 149.755 1715.25 147.968C1737.09 140.64 1759.42 138.812 1781.97 144.547C1818.04 153.716 1848.27 183.83 1866.79 214.915C1905.07 279.167 1909.4 365.783 1891.14 437.246C1885.25 460.31 1861.46 529.362 1841.64 541.111L1856.64 541.255L1859.89 540.231C1874.41 526.22 1892.48 477.369 1898.35 456.876C1920.78 378.574 1913.86 289.027 1874.02 217.386C1854.56 182.384 1824.98 150.753 1785.38 139.689C1754.45 131.045 1724.23 138.535 1696.95 154.002ZM1687.47 159.901L1686.64 160.764L1687.47 159.901L1688.37 159.239L1687.47 159.901ZM1684.47 162.064L1683.58 162.943L1682.64 163.744L1683.58 162.943L1684.47 162.064L1685.35 161.248L1684.47 162.064ZM1600.79 164.007C1595.61 171.724 1590.03 184.335 1583.18 190.276C1589.16 193.925 1611.75 213.984 1613.93 219.829C1614.09 219.698 1614.26 219.572 1614.43 219.436C1621.79 213.241 1631.05 194.712 1638 185.834C1665.86 150.214 1696.02 129.171 1740.91 123.048C1752.29 121.496 1763.61 120.424 1775.1 121.207C1799.96 122.901 1836.02 136.299 1852.48 155.713C1853.23 156.604 1853.89 157.379 1854.09 158.558L1858.68 161.537C1861.87 156.701 1852.36 142.148 1871 138.281Q1873.72 137.725 1876.47 137.281L1877.03 135.945C1855.91 106.919 1812.32 86.01 1777.6 80.5144C1732.23 73.3312 1688.88 86.4479 1652.14 113.335C1629.99 129.546 1618.59 144.373 1600.79 164.007ZM712.322 165.82C692.864 166.842 672.61 171.341 653.367 174.533C634.47 177.667 612.864 179.58 594.824 185.909C591.626 187.031 589.25 188.6 586.985 191.121C586.341 191.836 586.449 191.717 585.977 192.351L665.387 175.749C680.689 172.65 697.508 170.55 712.322 165.82L714.087 165.435L712.322 165.82ZM1727.11 270.003L1726.43 271.995L1727.11 270.003C1732.25 264.335 1734.33 251.113 1737.56 243.797Q1739.7 238.825 1742.09 233.968Q1744.47 229.11 1747.1 224.378Q1749.73 219.646 1752.59 215.053Q1755.45 210.459 1758.54 206.015Q1761.63 201.571 1764.94 197.288Q1768.25 193.005 1771.77 188.893Q1775.29 184.782 1779.01 180.853Q1782.73 176.923 1786.65 173.186L1786.57 171.458L1783.76 170.095C1781.57 168.676 1781.29 168.25 1778.74 168.45C1773.66 171.716 1769.67 178.179 1766.01 182.924C1745.34 209.759 1734.53 237.22 1727.11 270.003ZM1689.06 181.169C1689.03 181.247 1689.02 181.332 1688.98 181.403C1688.57 182.1 1688.08 182.749 1687.68 183.453C1684.86 188.386 1683.82 194.834 1682.73 200.362C1677.33 227.843 1679.5 254.217 1687.06 281.003L1687.71 282.995L1687.06 281.003C1689.12 274.18 1684.06 255.756 1683.31 247.825C1682.81 242.52 1682.99 237.14 1683.2 231.824C1683.68 219.834 1685.45 208.112 1687.88 196.38C1688.77 192.088 1692.26 184.873 1691.63 180.879L1689.06 181.169ZM1753.2 281.914L1752.59 283.001L1751.83 283.995L1752.59 283.001L1753.2 281.914C1754.98 281.263 1791.28 248.087 1798.24 242.557C1810.23 233.032 1824.4 226.503 1836.19 216.908C1835.61 214.372 1834 213.567 1832.09 211.892C1831.34 209.851 1831.12 209.79 1829.43 208.608C1828.94 208.687 1828.81 208.697 1828.28 208.836C1823.24 210.137 1817.3 215.381 1813.19 218.555C1790.84 235.82 1767.1 257.143 1753.2 281.914ZM1666.59 201.754C1666.52 201.921 1666.45 202.086 1666.38 202.255C1664.66 206.693 1664.74 212.428 1664.55 217.174C1663.53 242.172 1668.28 265.016 1677.98 288.003L1678.73 289.995L1677.98 288.003C1679.38 282.136 1672.49 266.006 1671.1 259.083C1668.97 248.454 1668.07 236.734 1668.04 225.904C1668.03 221.56 1670.32 202.931 1669.15 200.377L1666.59 201.754ZM1757.25 292.001L1756.64 292.986L1755.76 293.869L1756.64 292.986L1757.25 292.001C1763.7 290.409 1785.67 271.083 1793.39 266.053C1810.79 254.726 1829.43 245.463 1847.52 235.313C1847.52 235.214 1847.53 235.114 1847.51 235.017C1847.02 231.917 1844.73 230.065 1842.56 228.054C1842.42 226.148 1842.35 226.204 1840.99 224.833C1827.75 227.327 1786.9 261.572 1775.55 272.24C1768.96 278.432 1762.96 284.995 1757.25 292.001ZM1762.42 299.97L1761.56 300.919L1760.64 301.758L1761.56 300.919L1762.42 299.97C1768.39 299.049 1793.33 283.348 1800.61 279.524C1818.86 269.938 1838.17 262.71 1856.41 253.252C1856.43 252.922 1856.5 252.591 1856.46 252.262C1856.21 249.648 1854.02 247.311 1852.23 245.626L1851.87 242.954L1850.54 242.131C1835.32 245.207 1775.74 287.359 1762.42 299.97ZM1768.05 308L1766.49 309.021L1765.76 309.762L1766.49 309.021L1768.05 308C1770.71 307.917 1773.16 307.03 1775.62 306.101C1789.56 300.844 1803 294.225 1816.92 288.885C1832.14 283.047 1848.77 278.453 1863.35 271.269C1863.46 270.73 1863.57 270.424 1863.56 269.894C1863.54 266.876 1861.48 264.076 1859.51 261.998L1859.34 259.945C1859.04 259.907 1858.74 259.857 1858.45 259.83C1850.36 259.121 1778.15 299.881 1768.05 308ZM1724.39 333.096C1718.16 339.664 1718.09 348.49 1718.31 357.011L1720.08 356.233C1721.32 349.097 1722.38 342.143 1724.33 335.158C1724.53 334.44 1724.49 333.822 1724.39 333.096L1725.24 332.15L1724.39 333.096ZM772.103 397.351L771.146 397.899L772.103 397.351C788.608 392.706 801.035 390.132 817.998 395.132C812.714 394.918 807.376 394.289 802.088 394.686C780.309 396.322 761.274 408.056 747.164 424.333C719.497 456.249 714.297 498.518 717.201 539.08L731.092 539.051C728.15 527.44 727.371 514.273 728.51 502.361C730.819 478.193 740.619 454.13 759.82 438.499C771.085 429.328 784.926 424.691 799.471 426.321C817.054 428.291 832.259 438.08 843.102 451.8C863.301 477.356 867.237 507.373 863.55 538.859L875.166 538.905C876.423 526.883 877.072 516.067 875.644 504.048C872.284 476.7 860.591 449.214 838.674 431.662C820.188 416.858 800.874 413.395 777.778 416.016C787.905 412.424 798.068 410.221 808.875 411.022C827.48 412.4 844.511 422.645 856.446 436.676C880.387 464.823 884.591 503.321 881.616 538.751L900.328 538.424Q900.539 536.675 900.66 534.917C903.388 493.053 893.871 448.301 865.377 416.301C850.814 399.947 831.309 388.06 809.072 386.825C797.074 386.159 781.224 389.142 772.103 397.351ZM1762.63 413.255L1763.54 414.09C1771.93 417.242 1826.11 436.337 1828.58 439.93C1813.3 436.46 1772.1 424.159 1760.09 424.029L1758.43 423.166L1760.09 424.029C1768.21 428.643 1813.3 446.889 1815.88 450.893C1802.12 448.895 1786.8 443.496 1773.6 439.059C1767.27 436.929 1760.61 434.016 1753.99 433.049L1752.55 432.101L1753.99 433.049C1777.24 448.931 1805.73 459.395 1831.52 470.547C1839.74 474.103 1850.34 477.263 1857.62 482.317C1866.74 472.47 1873.26 440.862 1876 427.043C1878.8 412.927 1886.59 355.015 1879.35 344.216C1864.63 351.905 1804.16 351.772 1793.1 358.312L1792.94 360.167C1796.06 362.163 1862.46 358.911 1875.67 361.933C1875.94 361.994 1876.21 362.062 1876.48 362.126C1865.4 363.884 1796.08 368.151 1792.53 369.867L1791.84 372C1795.49 374.881 1862.39 376.471 1874.8 379.589C1861.25 381.187 1790.14 381.643 1787.65 382.878L1787.64 384.346C1794.74 387.747 1856.12 393.407 1870.48 396.147C1855.27 400.6 1786.96 389.553 1781 394.016L1780.99 395.106C1787.07 397.626 1794.12 397.602 1800.53 398.92C1821.36 403.196 1843.21 407.195 1863.53 413.405C1851.64 416.401 1781.77 403.325 1761.32 403.425C1789.28 409.783 1816.57 418.645 1844.09 426.622C1833.24 428.554 1781.11 414.409 1764.35 414.099L1763.54 414.09L1762.63 413.255ZM1487.08 424.994C1494.31 420.887 1501.45 418.479 1509.77 420.887C1521.29 424.22 1529.09 434.807 1534.48 444.94C1548.04 470.447 1550.44 499.084 1549.27 527.386C1549.16 529.902 1548.05 537.57 1550.67 538.584C1552.74 539.387 1556.28 538.909 1558.53 538.857C1567.73 518.834 1560.48 465.842 1552.65 444.756C1546.91 429.3 1536.34 409.451 1520.61 402.29C1513.98 399.269 1506.71 399.142 1499.95 401.853C1482.7 408.768 1472.04 428.319 1465.37 444.551C1463.14 449.978 1452.7 487.289 1452.01 488.027C1452.07 488.223 1452.14 488.417 1452.19 488.616C1455.26 499.754 1444.25 532.407 1454.53 539.188C1456.92 539.56 1457.44 539.809 1459.58 538.778C1459.92 532.239 1459 525.827 1459.09 519.301C1459.45 494.405 1462.3 456.974 1481.94 438.88C1486.3 434.865 1491.95 431.684 1498.05 432.001C1505.49 432.387 1511.9 437.704 1516.53 443.137C1531.74 460.999 1538.08 488.456 1538.97 511.366C1539.35 521.176 1537.77 538.35 1538.54 538.874C1539.1 539.253 1539.87 539.138 1540.54 539.269C1543.06 537.164 1543.27 533.769 1543.57 530.682C1546.39 502.238 1541.48 459.462 1522.81 436.8C1516.88 429.607 1508.67 424.351 1499.22 423.588C1495.21 423.265 1491.02 424.308 1487.08 424.994ZM1744.74 439.096L1745.44 439.937C1764.8 458.432 1816.67 488.068 1842.32 496.476C1845.31 497.458 1847.9 498.458 1850.8 496.981L1851.18 494.373C1853.44 492.441 1855.08 489.852 1855.35 486.879C1847.47 483.166 1838.78 480.51 1830.6 477.443C1813.36 470.979 1795.99 464.531 1779.14 457.134C1769.69 452.989 1754.98 441.447 1745.44 439.937L1744.74 439.096ZM1738.69 447.221L1739.33 448.068L1740.28 449.068C1745.12 454.844 1751.31 460.268 1757.02 465.217C1770.39 476.815 1822.97 517.039 1838.93 515.899C1840.75 514.323 1840.69 513.803 1841.24 511.411C1841.77 511.076 1842.04 510.937 1842.49 510.552C1844.57 508.785 1845.93 506.444 1846.13 503.725C1840.37 499.807 1830.65 497.597 1824 495.112C1813.13 491.051 1802.21 486.802 1791.89 481.488C1782.63 476.72 1773.48 471.26 1764.87 465.395C1757.32 460.255 1748.75 452.264 1740.28 449.068L1739.33 448.068L1738.69 447.221ZM768.25 448.038L768.635 449.176C769.699 457.217 779.878 495.674 784.265 500.366L786.423 500.128C786.943 499.192 787.466 498.189 787.633 497.117C788.673 490.446 772.93 455.389 768.635 449.176L768.25 448.038ZM693.577 451.861C698.689 433.593 709.306 415.884 719.903 400.229C689.743 401.63 659.335 401.017 629.138 401.099C624.122 405.967 619.076 411.464 612.457 414.11C597.684 420.016 578.079 420.567 562.341 422.192Q511.002 427.12 459.548 430.656C439.353 432.014 418.536 432.358 398.509 435.234C408.516 429.111 421.273 425.865 432.399 422.145C409.869 413.702 394.041 404.08 383.118 381.943L355.898 382.427C368.237 400.586 373.692 415.51 369.471 437.697C363.025 471.587 353.235 509.319 344.179 542.732L388.057 542.857C393.531 538.504 395.922 535.867 398.218 529.303L415.888 528.53C403.263 527.118 385.378 528.183 374.006 522.457L373.137 520.873C375.846 516.781 383.927 515.023 388.605 514.063C398.357 512.061 408.336 510.707 418.168 509.152C401.209 504.087 383.614 500.984 366.804 495.518Q425.553 491.53 484.4 489.437C505.7 488.578 528.615 486.164 549.808 488.314C557.302 489.075 566.943 491.287 572.821 496.133C583.338 504.803 598.986 535.98 606.494 538.975C607.36 533.607 586.736 503.941 582.447 497.963C576.03 489.02 569.754 483.555 558.581 481.682C538.331 478.288 515.38 481.664 494.838 481.966C451.908 482.599 409.144 483.001 366.22 481.689C395.898 470.433 441.717 469.677 473.973 466.894C505.809 464.147 537.682 460.971 569.601 459.407C587.231 458.515 616.581 455.811 633.673 458.056C620.242 461.456 605.316 462.198 591.536 463.813C563.091 467.147 534.423 469.993 506.122 474.402C532.927 475.775 569.257 469.123 589.305 491.313C602.036 505.403 612.352 523.243 622.825 539.124Q656.256 539.406 689.686 539.099C686.031 491.216 698.898 440.483 730.572 403.572C748.241 382.98 773.127 368.643 800.407 366.612C826.262 364.687 851.095 374.051 870.532 390.952C902.2 418.487 915.84 461.926 918.588 502.613C919.395 514.556 919.351 526.924 917.89 538.822C932.787 538.56 950.189 539.713 964.581 535.344C955.518 531.473 938.718 536.744 932.418 527.161C932.323 525.801 931.963 525.011 932.906 523.922C937.486 518.634 957.201 518.32 964.548 517.172C967.951 467.362 973.824 397.876 965.858 349.249C953.269 349.804 899.674 349.011 893.066 357.014C890.315 360.346 890.312 365.076 890.911 369.124C893.089 383.858 902.782 399.201 908.341 413.014C885.942 384.49 857.827 361.438 820.621 356.923C793.593 353.644 768.076 363.345 747.031 379.954C729.958 393.429 716.208 412.178 705.402 430.893C701.475 437.694 698.072 445.479 693.577 451.861ZM1480.22 449.296C1481.12 451.194 1482.36 453.024 1483.42 454.838L1484.24 455.852L1483.42 454.838C1483.58 453.304 1483.27 452.179 1482.87 450.725L1480.22 449.296ZM1528.43 510.086L1527.68 511.114C1520.99 517.375 1512.97 525.191 1508 532.868C1508.02 535.68 1508.06 536.03 1509.64 538.336L1511.58 538.73L1511.65 536.333Q1514.5 537.835 1517.3 539.439C1518.48 539.012 1519.37 539.053 1519.88 537.812C1521.13 534.798 1519.61 529.219 1520.81 525.247C1522.33 520.198 1526.45 515.722 1527.68 511.114L1528.43 510.086L1529.26 509.156L1528.43 510.086ZM785.924 513.058C783.641 518.042 783.571 522.793 785.553 527.933C786.571 530.57 788.183 532.87 790.083 534.943L787.753 536.741L788.557 538.058L790.729 537.75C790.541 536.826 790.421 535.823 790.083 534.943C792.709 535.578 793.619 537.657 796.334 538.644C800.097 540.011 802.418 540.361 806.196 538.582C804.762 537.167 803.407 536.44 801.605 535.605L800.918 535.293C800.566 532.707 804.501 530.156 805.964 527.806C809.1 522.772 811.234 511.113 808.083 505.677C806.192 502.415 802.732 500.711 801.833 496.843L802.767 495.414Q805.606 494.841 808.457 494.328C814.532 485.696 817.419 470.221 818.247 459.662C818.512 456.285 819.93 448.985 817.836 446.525L818.452 445.444L818.863 446.346C818.557 446.525 818.134 446.583 817.944 446.882C815.859 450.159 813.01 480.552 804.694 492.058L803.778 491.786C804.055 490.528 804.167 489.253 804.304 487.974C801.699 485.885 797.237 486.294 793.978 486.176C789.297 469.732 783.23 454.568 774.654 439.754C777.761 452.429 783.501 464.707 787.041 477.367C788.612 482.982 788.47 490.582 791.149 495.548C793.499 496.554 795.709 497.244 798.185 497.856L798.669 499.959C796.589 506.763 791.548 511.131 786.594 515.926L785.924 513.058L786.773 511.005L785.924 513.058ZM803.414 861.563C770.878 845.489 747.762 811.447 733.976 779.07L678.172 778.988C692.057 816.385 718.499 851.123 755.443 868.115Q761.381 870.866 767.61 872.876Q773.838 874.886 780.265 876.124C793.56 878.667 807.853 878.836 821.353 879.952C841.557 881.622 862.801 884.832 883.055 883.461Q886.703 883.214 890.324 882.7Q893.944 882.185 897.517 881.406Q901.09 880.627 904.596 879.588Q908.102 878.548 911.522 877.254C949.027 863.327 978.078 831.471 994.401 795.528C996.833 790.174 998.862 784.724 1000.68 779.133C981.352 779.123 961.999 778.886 942.677 779.141C939.358 784.751 936.159 790.468 932.298 795.728C916.763 814.976 898.354 829.09 873.051 831.859C851.215 834.248 829.955 826.88 812.984 813.163C801.56 803.93 793.824 792.304 786.235 779.9L763.934 779.612C780.042 817.135 802.865 852.085 842.29 867.95C851.764 871.763 861.616 874.054 871.75 875.203C847.242 878.546 817.018 865.497 797.918 850.943C781.026 838.071 766.762 820.323 757.072 801.463C753.835 795.162 751.169 785.668 746.073 780.772L744.804 781.176C743.568 791.07 762.998 820.673 769.52 829.006C776.537 837.971 784.966 845.629 793.531 853.074C796.621 855.76 800.808 858.459 803.414 861.563ZM1172.09 868.005C1145.15 857.519 1119.59 827.311 1106.87 802.123C1103.92 796.273 1100.24 783.369 1095.75 779.189L1041.03 779.162C1041.22 779.324 1041.41 779.482 1041.59 779.648C1045.02 782.757 1057.68 810.983 1063.08 819.018C1078.93 842.579 1102.65 865.808 1131.2 872.264C1144.38 875.244 1158.75 875.754 1172.21 877.09C1190.41 878.896 1209.03 881.381 1227.33 880.992C1260.68 880.284 1290.32 865.828 1313.23 841.842C1323.14 831.461 1349.18 795.572 1348.36 781.277C1348.33 780.742 1348.24 780.527 1348.1 779.976L1293.52 780C1293.52 784.292 1289.45 790.065 1286.47 793.034C1286.02 793.482 1285.6 793.776 1285.08 794.128C1283.84 802.082 1269.7 812.864 1263.51 817.365C1247.69 828.868 1229.06 833.957 1209.62 830.852C1185.28 826.966 1166.35 812.559 1152.25 792.922C1149.44 789.011 1146.11 782.497 1142.39 779.587L1123.31 779.489C1128.95 784.678 1132.79 797.182 1136.29 804.194C1148.48 828.628 1168.19 852.205 1193.05 864.382C1201.37 868.462 1210.35 870.845 1218.6 874.804C1182.49 869.813 1156.28 854.084 1134.23 824.928C1128.66 817.566 1122.41 809.453 1118.58 801.029C1115.91 795.15 1114.09 788.313 1110.96 782.737C1110.07 781.143 1109.31 779.926 1107.55 779.228L1105.86 780.169C1104.17 786.298 1115.19 804.505 1118.48 810.295C1126.93 825.167 1138.8 840.886 1151.54 852.46C1156.9 857.328 1168.53 862.193 1172.09 868.005ZM888.005 911.256L888.537 912.051C970.3 931.853 1050.12 934.605 1132.99 920.254C1143.24 918.479 1163.32 916.812 1172.03 911.999L1173.72 911.257L1172.03 911.999C1156.36 912.176 1139.79 915.383 1124.14 917.02Q1081.03 921.868 1037.64 922.211C1004.66 922.323 972.27 920.42 939.435 917.301C922.612 915.703 905.385 912.357 888.537 912.051L888.005 911.256ZM990.89 18.4357C789.266 26.5358 586.439 91.3918 446.562 242.99Q423.387 268.497 403.028 296.305Q416.962 295.214 430.855 293.678C441.02 282.647 450.582 271.084 460.821 260.122Q476.169 243.696 492.562 228.312Q508.955 212.928 526.322 198.653C657.992 90.662 828.802 46.3024 996.145 39.3721Q1005.59 39.0154 1015.03 38.8419Q1024.48 38.6684 1033.93 38.6781Q1043.38 38.6879 1052.83 38.8809Q1062.27 39.0738 1071.72 39.45Q1081.16 39.8261 1090.59 40.3853Q1100.02 40.9445 1109.44 41.6865Q1118.86 42.4285 1128.27 43.353Q1137.67 44.2775 1147.05 45.3843Q1156.44 46.491 1165.8 47.7795Q1175.16 49.068 1184.49 50.5378Q1193.83 52.0076 1203.13 53.6581Q1212.43 55.3086 1221.7 57.1392Q1230.97 58.9699 1240.21 60.9799Q1249.44 62.99 1258.63 65.1787Q1267.82 67.3675 1276.97 69.7341Q1286.12 72.1007 1295.22 74.6442C1303.28 76.9693 1326.28 82.4483 1331.87 86.7062C1331.98 86.7872 1332.07 86.8883 1332.17 86.9793C1357.25 93.7646 1382.13 105.396 1405.41 116.772C1502.59 164.262 1593.34 236.405 1647.76 331.251C1677.9 383.771 1695.45 439.67 1699.72 500.133C1700.5 511.091 1702.24 525.345 1699.64 535.957C1699.37 537.05 1698.83 538.045 1698.2 538.967L1721.47 539.583C1724.35 533.588 1723.37 523.414 1723.28 516.652Q1723.2 508.731 1722.81 500.82Q1722.41 492.909 1721.7 485.02Q1720.99 477.131 1719.97 469.276Q1718.95 461.422 1717.61 453.614Q1716.28 445.806 1714.63 438.058Q1712.99 430.309 1711.04 422.633Q1709.09 414.956 1706.83 407.363Q1704.58 399.769 1702.02 392.272C1654.87 258.021 1535.45 155.547 1410.09 95.4279C1287.44 36.6094 1126.28 11.1869 990.89 18.4357ZM1741.25 52.4998C1681.54 56.089 1631.37 86.358 1592.19 130.544C1586.43 137.044 1563.32 163.783 1562.83 170.503L1564.6 170.62C1584.27 143.588 1602.76 119.484 1629.67 98.9472C1636.94 93.4056 1656.13 83.2767 1660.18 78.9385C1672.93 73.7965 1685.28 67.8665 1698.51 63.9585C1736.62 52.6977 1778.84 56.1706 1815.24 71.5789C1838.71 81.5168 1857.07 95.7107 1876.42 111.843C1873.38 107.211 1868.15 102.771 1864.04 99.0545C1841.17 78.3518 1811.79 62.1847 1781.44 55.9119C1768.52 53.2409 1754.45 51.6783 1741.25 52.4998ZM547.16 57.0298C559.807 63.4559 573.892 73.3344 587.369 77.1688C602.331 81.4256 619.858 80.1301 635.347 82.4142L650.291 75.6943C652.339 74.7666 656.464 73.5223 657.539 71.5493C643.25 68.6668 628.542 67.3217 614.08 65.5236L547.16 57.0298ZM1644.24 58.499C1585.07 66.7723 1533.92 70.1832 1475.76 87.7512C1469.47 89.6515 1458.7 91.8025 1453.81 96.1205L1453.7 96.7577C1456.01 97.7797 1458.17 98.0024 1460.56 96.9674C1460.78 96.8731 1460.99 96.7647 1461.2 96.6633C1500.97 87.331 1539.57 81.8057 1580.48 81.6295C1590.54 81.5862 1601.33 81.2186 1611.27 82.8044C1626.02 76.14 1638.74 65.3152 1653.74 58.6975L1653.66 58.0737C1650.53 58.1519 1647.35 58.1157 1644.24 58.499ZM437.542 79.3969C395.245 83.6819 351.204 104.272 324.019 137.741Q322.843 139.192 321.734 140.696C326.522 139.011 330.375 137.669 335.213 139.891C338.418 141.364 340.833 144.142 342.02 147.445C343.427 151.359 343.029 155.645 341.156 159.331C339.392 162.802 336.351 166.428 332.519 167.619C329.769 168.473 326.622 167.65 324.209 166.215C320.332 163.909 316.4 159.656 315.479 155.123C314.95 152.521 315.281 149.691 315.511 147.069C275.706 201.601 259.085 255.372 252.205 321.6C259.499 319.763 266.856 317.605 274.244 316.219C277.453 292.289 282.666 269.074 290.604 246.256C308.334 198.293 338.421 152.228 386.268 130.224C419.385 114.995 454.789 114.299 488.763 127.015Q493.908 128.938 498.922 131.18Q503.936 133.421 508.8 135.973Q513.664 138.524 518.358 141.376Q523.053 144.227 527.559 147.367C539.531 138.997 551.97 131.382 564.01 123.143C529.434 95.2861 483.915 74.6294 438.511 79.2925L437.542 79.3969ZM985.882 92.5C949.549 94.1395 913.655 96.8126 877.611 101.746Q846.622 105.99 815.923 111.976C794.099 116.173 645.435 147.093 637.355 156.815C637.143 157.07 636.957 157.345 636.759 157.61L637.138 158.624C650.041 156.727 663.426 151.389 676.153 148.144Q724.029 135.708 772.383 125.284C866.102 105.66 971.183 99.9746 1066.75 102.045C1167.43 104.817 1260.53 119.184 1358.46 141.742C1376.44 145.884 1404.59 150.626 1421.24 157.222C1414.39 146.508 1344.9 133.78 1328.97 130.277C1230.65 108.645 1141.63 92.4391 1040.55 91.7801C1022.44 91.6621 1003.95 91.3757 985.882 92.5ZM1355.79 124.5L1357.4 124.5L1355.79 124.5ZM1106.47 156.489C1065.01 160.163 1023.06 157.553 981.429 160.369Q920.65 164.472 860.466 173.897C832.309 178.244 804.709 182.84 777.358 191.018C745.364 200.584 714.172 213.985 684.095 228.405C643.821 247.714 605.38 270.27 565.467 290.086C569.809 289.878 574.926 289.978 579.028 288.487C597.239 281.864 615.118 270.383 632.26 261.192C666.817 242.664 701.697 223.767 738.083 209.065Q756.43 201.579 775.374 195.767Q794.318 189.956 813.707 185.866C842.315 179.94 871.581 177.797 900.642 175.412C950.157 171.349 1000.36 168.352 1050.04 171.252C1047.4 175.365 1014.64 198.439 1007.21 204.721C976.209 230.932 950.414 263.718 916.453 286.11C930.04 286.513 943.714 286.655 957.265 287.707C986.913 248.158 1028.65 198.933 1074 178.224C1086.1 172.701 1099 169.69 1112.12 167.789C1139.69 163.794 1168.29 166.092 1195.86 169.156C1284.57 179.012 1339.73 199.561 1411.24 253.166C1419.08 259.046 1440.17 272.33 1441.85 282.219C1442.31 284.934 1441.5 285.958 1439.98 288.006C1426.16 291.808 1365.54 288.491 1348.06 288.284Q1274.55 287.765 1201.04 288.845Q1162.71 288.845 1124.39 289.62C1110.37 289.828 1096.03 289.393 1082.1 290.835C1072.6 291.819 1063.87 294.06 1054.56 295.736C1119.04 292.408 1183.6 292.403 1248.16 291.669C1285.37 291.246 1322.49 291.717 1359.7 291.928C1387.67 292.086 1415.69 291.621 1443.62 293.379C1459.9 294.404 1519.62 300.689 1530.4 309.323Q1473.27 304.177 1415.98 301.38Q1358.7 298.583 1301.34 298.14C1241.24 297.566 1181.26 299.108 1121.19 300.098C1107.22 300.328 1053.97 298.792 1043.74 303.761C1041.85 305.862 1041.6 306.265 1041.09 309.039C1042.84 311.73 1044.4 312.714 1047.6 313.333C1059.49 315.632 1074.93 312.965 1087.24 312.704L1188.75 310.87C1259.24 309.269 1329.45 308.388 1399.94 310.762C1457.39 312.697 1513.99 315.399 1569.97 329.441C1557.79 330.438 1545.37 329.952 1533.15 329.947Q1500.07 329.744 1466.99 330.217C1404.12 331.518 1341.29 334.925 1278.45 336.303C1286.22 343.119 1288.07 360.263 1288.69 370.149C1289.71 386.4 1281.86 467.487 1272.68 478.444C1290.23 477.135 1416.39 461.401 1423.05 463.21C1423.77 463.406 1424.75 464.139 1425.43 464.51C1426.23 466.885 1426.28 467.315 1425.73 469.751C1423.79 471.969 1421.85 472.816 1419.01 473.397C1408.15 475.622 1396.12 475.721 1385.02 477.242L1101.02 514.485L1020.79 524.955C1005.21 526.917 989.199 528.227 973.77 531.054C971.538 531.463 969.71 531.929 968.127 533.666L969.306 535.39C980.97 535.688 994.484 532.532 1006.15 530.954L1073.41 522.178C1140.7 513.246 1208.62 506.161 1275.66 495.656C1278.3 500.218 1277.56 508.102 1276.32 513.087C1276.16 513.702 1275.97 514.297 1275.75 514.892C1278.98 510.711 1280.99 502.859 1280.44 497.583C1280.35 496.678 1280.12 496.1 1279.76 495.27C1324.26 489.365 1368.9 484.186 1413.31 477.711C1413.69 483.602 1409.88 489.719 1406.14 494.046C1401.07 499.921 1394.12 504.295 1386.94 507.107C1375.53 511.576 1362 513.32 1349.98 515.687C1325.37 520.532 1300.86 525.296 1275.96 528.312C1277.5 531.692 1277.25 535.199 1275.99 538.647C1275.79 539.181 1275.58 539.712 1275.37 540.239L1430.54 539.94C1430.63 539.724 1430.73 539.51 1430.82 539.292C1434.11 531.076 1431.64 516.034 1432.13 506.902C1434.47 463.202 1445.14 402.797 1490.05 382.329C1501.17 377.261 1512.39 376.363 1523.88 380.786C1541.7 387.647 1553.99 404.711 1561.37 421.638C1574.85 452.534 1576.34 488.693 1573.34 521.888C1573.1 524.46 1570.84 535.665 1571.5 537.485C1571.7 538.056 1572.4 538.301 1572.85 538.709C1577.9 537.567 1579.49 532.291 1583.21 529.125C1588 525.038 1598.7 522.909 1602.33 518.531C1608.18 509.737 1616.85 471.02 1614.98 461.212C1614.85 460.523 1614.68 459.884 1614.46 459.222C1614.61 452.155 1604.16 441.673 1602.19 433.922C1597.91 417.045 1603.63 398.509 1599.22 381.404C1595.85 368.338 1587.46 357.523 1582.18 345.305C1578.77 337.422 1578.02 327.434 1571.78 321.118C1560.87 310.069 1535.67 304.268 1520.91 297.879C1510.02 293.165 1499.33 287.813 1488.82 282.319C1448.85 261.433 1410.28 232.956 1369.91 210.861C1317.11 181.961 1257.39 170.572 1198.33 162.521C1172.11 158.945 1145.66 155.77 1119.15 156.112C1114.93 156.166 1110.68 156.228 1106.47 156.489ZM449.401 161.904C453.34 167.83 467.573 191.911 472.341 193.461L474.345 192.724C474.986 185.135 464.078 171.636 459.155 165.855C457.891 164.371 456.618 163.189 454.969 162.121L449.401 161.904ZM472.599 162.671C476.104 168.596 479.566 176.462 484.189 181.46C485.732 181.714 486.586 181.754 488.1 181.37C488.656 177.227 485.3 171.141 482.759 167.916C480.397 164.919 478.788 163.247 474.889 162.843C474.126 162.764 473.364 162.718 472.599 162.671ZM1315.76 163.499C1330.09 164.359 1344.98 167.831 1359.15 170.219C1397.44 176.672 1435.62 184.84 1474.02 190.502C1472.88 187.492 1468.91 185.025 1466.05 183.728C1465.74 183.589 1465.43 183.463 1465.12 183.33Q1415.72 174.908 1366.08 168.025C1350.12 165.885 1331.83 162.152 1315.76 163.499ZM1732.8 163.499C1715.23 198.782 1705.1 231.311 1706.39 270.965L1708.94 272.217L1705.9 272.734L1708.92 273.636L1707.95 275.506L1708.22 275.177C1707.69 273.952 1707.21 272.677 1706.56 271.508C1710.05 265.989 1712.18 232.227 1714.92 222.241C1718.55 208.98 1723.64 196.14 1729.25 183.604C1731.94 177.609 1737.83 170.937 1738.9 164.754L1738.16 163.173C1736.31 163.118 1734.63 163.166 1732.8 163.499ZM1754.52 163.499C1752.51 171.795 1743.56 181.248 1739.34 188.852C1729.71 206.201 1713.6 253.282 1717.49 272.914L1718.18 272.926C1718.32 270.781 1718.22 269.507 1717.23 267.579C1721.63 260.78 1721.9 249.522 1724.39 241.607Q1729.98 224.109 1737.64 207.416C1741.79 198.536 1746.48 189.77 1751.92 181.604C1754.04 178.415 1762.79 168.935 1763.09 165.738L1763.25 164.004C1760.54 162.545 1757.53 162.924 1754.52 163.499ZM430.287 163.541L429.116 165.92C431.083 171.04 456.098 203.417 459.856 205.482C460.695 204.008 462.041 202.519 461.614 200.824C460.434 196.137 438.032 166.13 433.555 164.062C432.571 163.608 431.354 163.574 430.287 163.541ZM500.604 168.931L501.405 169.252L500.604 168.931ZM1712.67 168.497C1703.08 175.71 1697.39 207.123 1695.73 218.778C1694.03 230.704 1693.2 243.486 1693.96 255.516C1694.34 261.471 1697.82 270.976 1695.74 276.492C1699.92 271.374 1697.22 252.708 1697.18 245.736C1697.08 226.603 1701.62 206.364 1707.93 188.367C1710.11 182.16 1714.42 175.65 1715.18 169.159L1712.67 168.497ZM413.836 170.337L411.316 173.751C412.114 178.337 443.136 211.914 448.484 216.344L451.267 212.694C450.596 208.513 421.625 174.914 416.609 171.519C415.892 171.033 415.063 170.737 414.245 170.473L413.836 170.337ZM1123.24 172.493C1109.39 174.583 1095.2 177.374 1082.29 182.973C1037.4 202.455 996.22 249.046 967.556 288.022C964.892 291.645 962.242 295.37 959.988 299.265C974.072 298.261 998.049 299.307 1010.51 295.132C1006.45 292.047 972.964 295.057 966.162 295.07C1003.97 244.917 1054.34 186.214 1119.95 177.044C1161.05 171.298 1220.67 179.072 1261.35 188.231C1267.86 189.695 1277.59 191.275 1283.2 194.635C1292.83 196.494 1339.45 214.058 1344.27 220.753C1349.46 225.46 1365.54 271.821 1365.77 279.495C1365.8 280.478 1365.59 281.286 1365.22 282.177C1372.74 281.404 1380.4 280.854 1387.8 279.241C1388.2 275.512 1384.85 271.165 1382.62 268.382C1377.39 261.867 1370.23 256.751 1362.55 253.581C1359.91 244.928 1355.73 229.293 1348.69 223.471C1366.75 230.011 1391.88 250.128 1407.32 262.093C1411.61 265.419 1431.4 283.028 1434.52 283.1C1434.85 282.339 1435.34 281.868 1434.99 281.067C1432.5 275.349 1422.08 268.852 1417.13 264.961C1381.22 236.73 1342.63 211.651 1299.47 196.065C1253.47 179.455 1171.59 167.52 1123.24 172.493ZM1795.69 179.498C1793.17 185.257 1777.39 199.526 1772.61 205.324Q1763.36 216.488 1755.65 228.766C1751.47 235.545 1735.54 266.779 1737.46 273.096C1738.71 271.04 1739.7 268.973 1739.54 266.516C1744.6 260.858 1747.89 252.929 1751.87 246.44C1760.93 231.686 1772.18 216.182 1785.07 204.507C1788.49 201.417 1805.69 187.471 1806.19 185.175C1804.4 182.872 1802.01 180.1 1798.98 179.548C1798.27 179.419 1797.55 179.435 1796.84 179.449C1796.6 179.453 1796.36 179.449 1796.12 179.459C1795.98 179.465 1795.84 179.485 1795.69 179.498ZM399.192 179.958C396.83 181.746 395.285 182.349 394.36 185.211C405.604 199.87 423.648 213.998 437.377 226.793L440.362 223.813C440.089 219.126 407.3 186.783 401.848 181.955C400.997 181.201 400.143 180.577 399.192 179.958ZM910.94 181.563C810.938 185.67 759.125 201.173 670.661 247.545C645.845 260.553 620.575 273.653 596.676 288.275L611.508 287.144L657.675 284.94C712.936 250.36 772.857 219.753 837.275 206.756C836.459 203.647 834.811 199.472 836.107 196.436C842.167 191.564 870.437 194.008 879.732 193.097C895.157 191.586 911.425 188.75 924.953 180.979C920.292 181.166 915.59 181.225 910.94 181.563ZM945.244 181.463L930.423 181.911C912.97 194.82 900.433 193.242 881.978 200.538C885.503 200.418 890.161 199.726 893.607 200.524C899.212 201.822 902.081 205.222 908.293 205.775C927.833 207.514 947.638 205.977 967.199 207.881Q977.825 208.557 988.462 209.045C995.923 203.389 1019.94 187.144 1024 181.023Q984.62 180.763 945.244 181.463ZM1185.86 183.494C1197.03 202.034 1205.47 254.02 1208.48 276.296C1208.77 278.437 1208.77 281.174 1211.22 281.81C1212.43 282.123 1215.07 281.817 1216.23 281.371C1219.85 275.166 1208.27 231.161 1205.75 221.583C1203.13 211.62 1199.72 191.829 1193.87 183.585C1191.14 182.577 1188.66 183.087 1185.86 183.494ZM384.426 192.056L377.924 197.896C393.395 212.029 410.327 224.41 426.259 237.992C428.257 236.752 428.746 236.429 429.881 234.397C427.076 227.65 392.203 196.437 384.426 192.056ZM1813.38 192.499C1813.25 192.654 1813.12 192.812 1812.98 192.965C1807.22 199.416 1799.42 204.48 1793.1 210.486C1779.59 223.339 1747.83 259.46 1745.63 277.429C1747.31 275.905 1747.71 274.676 1748.22 272.497C1755.39 267.02 1770.95 244.377 1779.65 235.734C1793.58 221.908 1808.82 212.924 1822.28 200.662C1821.52 197.965 1818.54 194.691 1816.15 193.247C1815.24 192.691 1814.47 192.469 1813.38 192.499ZM662.758 200.5L664.49 200.5L662.758 200.5ZM1173.01 200.471C1153.71 203.307 1133.8 204.002 1114.72 207.971C1112.53 212.318 1107.03 222.328 1103.51 225.512C1109.15 223.342 1114.46 220.153 1120.12 218.193C1131.08 214.398 1151.21 213.458 1161.81 218.182C1165.42 219.794 1168.24 222.117 1169.7 225.889C1170.6 228.207 1171.55 232.124 1170.7 234.502C1174.8 239.194 1179.18 261.559 1178.77 267.624C1178.7 268.563 1178.51 269.503 1178.29 270.416C1178.62 274.693 1176.03 278.288 1173.51 281.504Q1184.94 281.19 1196.37 281.248C1200.39 272.36 1188.6 214.181 1184.32 203.36C1183.89 202.251 1183.29 201.34 1182.5 200.461C1179.18 199.89 1176.33 200.092 1173.01 200.471ZM1233.18 200.494C1236.84 204.88 1252.12 250.611 1251.67 256.465C1251.62 257.091 1251.48 257.671 1251.3 258.268C1251.47 258.119 1251.64 257.972 1251.8 257.819C1254.97 254.889 1256.62 251.012 1259.62 247.991C1271.68 235.826 1286.47 235.295 1302.67 235.728C1309.71 235.916 1317.26 237.239 1322.31 242.595C1331.04 251.867 1330.71 274.188 1337.23 282.172L1358.27 281.895C1359.12 274.901 1353.04 255.408 1348.53 249.831C1348.43 249.706 1348.33 249.589 1348.22 249.468C1345.83 246.102 1340.89 243.41 1337.47 241.142C1310.03 222.942 1271.44 206.109 1238.93 200.366C1236.92 200.011 1235.17 200.064 1233.18 200.494ZM1385.76 200.5L1387.47 200.5L1385.76 200.5ZM654.788 201.452C637.273 203.535 557.203 211.903 546.839 220.212L546.245 221.831C548.326 222.441 548.979 222.184 551.048 221.724C562.487 219.587 654.945 204.18 657.731 201.465L658.391 201.979L660.067 201.146L654.788 201.452ZM1386.76 201.497C1404.24 202.844 1506.13 225.642 1514.72 223.503C1513.51 220.507 1511.14 218.639 1508.16 217.328C1485.08 213.061 1405.88 199.336 1386.76 201.497ZM884.805 205.428C881.55 205.516 877.379 205.061 874.963 207.592C871.179 211.558 869.977 220.114 868.152 225.462L885.656 224.948C889.553 224.473 893.796 224.392 896.905 221.744C900.285 217.072 899.066 210.222 898.849 204.714C894.212 204.942 889.409 204.915 884.805 205.428ZM371.491 205.731L364.297 214.352C381.791 226.106 400.306 237.258 417.043 250.003C418.894 248.057 420.174 247.328 420.566 244.583C405.319 231.045 388.309 217.246 371.491 205.731ZM845.015 213.238C842.183 214.118 840.763 214.285 838.693 216.464C838.226 219.321 838.085 221.121 839.116 223.941C840.686 225.908 842.149 227.047 844.721 227.318C849.928 227.868 855.977 227.079 861.26 226.913L865.428 225.425C865.883 223.847 866.122 223.755 865.328 222.316C863.319 218.68 858.662 215.396 855.547 212.626L845.015 213.238ZM358.76 222.401C356.67 225.515 354.669 228.816 352.304 231.722L407.537 261.132C409.137 259.31 410.422 258.534 410.443 255.991C400.63 246.469 371.444 227.717 358.76 222.401ZM911.037 222.868C901.705 241.227 896.253 258.872 894.382 279.398C898.881 266.058 902.798 251.674 909.972 239.482C919.944 231.892 952.478 232.944 965.875 231.448C947.745 227.187 929.682 223.851 911.037 222.868ZM869.525 230.181C862.83 240.708 848.94 269.829 848.353 282.126C851.336 283.071 853.862 283.199 856.973 283.195L860.376 282.401C865.498 274.06 873.168 242.994 876.983 230.991C875.105 229.554 871.893 230.175 869.525 230.181ZM1649.34 230.487C1646.84 241.47 1653.16 257.385 1657.06 267.481C1658.01 269.939 1660.2 273.302 1660.37 275.794C1660.59 275.173 1661.18 274.024 1661.21 273.413C1661.32 270.826 1652.5 240.314 1651.76 231.552C1650.92 231.086 1650.29 230.679 1649.34 230.487ZM1434.76 235.499C1451.5 237.4 1544.63 258.705 1550.62 256.502C1549.95 254.325 1548.24 252.198 1546.37 250.874C1546.16 250.726 1545.91 250.641 1545.68 250.525C1523.94 245.463 1454.74 233.888 1434.76 235.499ZM600.771 236.398C582.77 237.928 524.324 242.385 511.684 250.425L511.137 251.932C513.392 253.009 515.846 252.264 518.226 251.881C532.233 249.144 602.067 239.185 608.564 235.997L600.771 236.398ZM349.329 238.548C347.122 242.378 344.676 246.199 342.731 250.163C361.012 257.771 380.062 264.995 397.759 273.817C399.592 271.784 401.346 270.117 401.893 267.326C392.882 259.617 361.073 244.125 349.329 238.548ZM1061.37 244.493C1049.85 246.899 1035.04 253.968 1028.61 264.087C1026.02 268.148 1013.71 299.627 1014.26 302.566C1014.55 304.083 1015.35 304.452 1016.46 305.429C1021.15 306.283 1026.25 306.779 1030.43 303.984C1041.89 296.326 1037.01 290.309 1054.83 288.031C1069.89 286.267 1114.38 283.915 1123.94 271.256C1124.74 270.202 1125.01 269.021 1125.18 267.74C1124.29 263.769 1121.74 261.967 1118.46 259.915C1102.74 250.051 1080.06 242.767 1061.37 244.493ZM340.147 256.507L335.095 269.098C349.751 273.294 376.421 283.289 389.673 285.338C391.206 283.478 393.735 281.355 393.896 278.956C388.012 275.698 381.216 273.501 374.999 270.878C363.411 265.99 351.981 260.793 340.147 256.507ZM555.785 268.465C540.204 270.03 492.815 272.235 481.749 280.964L481.781 282.149C484.317 282.506 486.344 281.913 488.759 281.263C501.828 279.014 554.334 271.639 562.375 268.291C560.164 268.225 557.97 268.056 555.785 268.465ZM1494.37 271.498C1504.88 274.421 1573.61 290.526 1578.85 288.503C1578.67 286.253 1577.61 284.082 1575.8 282.635C1575.54 282.422 1575.22 282.277 1574.93 282.098C1559.79 279.3 1506.46 269.127 1494.37 271.498ZM333.512 274.885L329.179 287.89C346.838 290.607 364.434 294.314 382.101 296.771C382.983 295.491 385.934 292.071 385.817 290.714C379.721 286.105 342.539 277.089 333.512 274.885ZM1861.74 277.499C1856.79 281.084 1849.05 283.174 1843.32 285.438C1827.8 291.576 1787.86 305.888 1776.22 316.306L1777.22 316.815L1780.19 315.686C1792.68 312.476 1804.87 308.132 1817.29 304.62C1826.45 302.029 1862.9 293.788 1869.31 289.813C1869.6 285.149 1869.24 281.286 1866.16 277.589C1864.44 277.01 1863.5 277.113 1861.74 277.499ZM751.764 278.455C737.254 278.804 723.73 279.479 709.484 282.631C721.809 283.378 734.179 282.247 746.511 282.047Q775.881 281.812 805.25 282.059C816.043 282.207 829.591 284.29 839.94 282.502C825.479 278.124 769.034 277.689 751.764 278.455ZM1743.38 279.5L1744.41 279.5L1743.38 279.5ZM723.519 288.435C609.495 291.521 494.542 297.917 381.437 312.944C339.653 318.496 297.257 323.95 256.5 334.998C231.582 341.752 206.948 350.88 184.544 363.775C177.422 367.874 169.562 372.255 163.841 378.245C157.289 385.106 156.199 394.544 151.452 402.41C139.379 422.417 121.92 425.521 123.137 455.794C123.322 460.396 125.019 466.146 124.538 470.588C124.296 472.82 122.211 474.99 122.008 476.927C121.757 479.309 123.193 480.864 124.532 482.573C129.603 485.113 138.355 482.722 140.677 488.952C141.158 490.24 141.163 492.104 141.275 493.477L140.178 495.011C136.548 495.319 133.664 493.172 130.579 495.137C129.688 498.586 130.606 502.173 131.155 505.622L142.991 507.13L145.447 522.348C142.122 522.058 136.917 520.958 134.054 522.767C132.698 525.681 133.628 529.371 134.015 532.494C138.384 533.226 142.815 534.161 147.249 534.279L149.573 547.15L134.824 545.467C134.305 548.899 134.019 553.65 132.472 556.741C129.523 562.631 117.532 569.515 121.172 576.293C123.778 577.926 125.834 578.887 128.856 579.545C134.876 577.139 133.795 567.746 142.751 571.306C148.076 573.423 152.878 576.201 158.382 578.158C155.925 570.846 149.76 558.308 153.738 550.849C154.867 548.731 156.728 546.816 158.46 545.191C154.92 525.889 153.513 506.143 149.782 486.934C213.004 496.124 287.936 496.267 352.181 495.97L360.734 449.393L363.153 437.485C329.112 438.842 295.105 441.084 261.059 442.215C234.935 443.083 208.025 444.483 182.223 439.595C168.628 437.02 156.783 432.467 144.759 425.702C151.585 408.647 163.05 393.407 174.262 378.984C274.455 377.403 374.294 376.128 474.151 367C497.486 364.867 521.503 363.652 544.645 360.176C560.108 357.854 575.197 351.587 590.114 347.036C609.59 341.094 629.851 335.932 649.783 331.745C715.222 317.998 781.58 311.064 848.2 306.156C881.829 303.679 916.127 301.094 949.837 300.906L955.037 291.094C923.843 290.558 892.68 288.897 861.492 288.144Q792.503 287.05 723.519 288.435ZM1679.52 291.5L1680.47 291.5L1679.52 291.5ZM328.42 292.216L325.201 306.024C337.555 304.326 350.707 303.51 362.839 300.853C365.151 300.739 365.06 300.624 366.645 298.903L367.439 300.217L367.891 299.412C356.511 294.962 340.661 294.292 328.42 292.216ZM1867.67 294.499C1856 301.846 1785.39 317.987 1782.68 326.021L1784.04 326.867L1787.21 325.985C1805.86 322.06 1824.49 317.819 1843.22 314.239C1853.14 312.342 1864.08 311.475 1873.74 308.703C1874.86 304.224 1874.56 299.557 1872.09 295.566C1871.57 294.721 1871.07 294.496 1870.06 294.306C1869.37 294.178 1868.36 294.403 1867.67 294.499ZM984.509 303.57L960.508 304.564L967 316.061L990.75 315.163L1019.65 314.79C1015.49 311.043 1011.98 307.579 1008.82 302.908C1000.74 303.063 992.567 302.978 984.509 303.57ZM940.766 305.426C815.316 311.592 692.29 322.746 571.064 357.929C587.416 357.926 657.058 346.902 668.568 356.543C669.359 358.941 669.332 359.771 668.065 362.126C664.946 367.924 658.388 373.129 653.703 377.678C647.679 383.402 641.498 389.03 635.768 395.048L723.706 394.985C744.1 371.31 765.532 356.809 796.306 350.477C779.329 341.999 763.818 335.679 745.173 331.685Q798.924 325.141 852.942 321.401Q906.96 317.661 961.1 316.735L955.182 304.604C950.415 304.869 945.503 304.905 940.766 305.426ZM1582.2 312.498C1584.57 314.4 1586.05 315.841 1587.52 318.566C1590.98 319.016 1599.74 320.996 1602.56 319.502C1601.93 317.133 1601.83 315.969 1599.67 314.509C1596.21 312.159 1586.71 311.364 1582.68 312.361C1582.52 312.401 1582.36 312.452 1582.2 312.498ZM1869.26 312.499C1856.21 316.315 1794.21 329.616 1789.18 336.056L1790.04 337.26C1791.86 337.142 1793.52 337.105 1795.22 336.41C1822.57 333.097 1850.09 328.189 1877.62 326.992C1878.77 323.814 1878.51 318.388 1877.1 315.344C1876.36 313.763 1875.53 312.796 1874.05 311.915L1869.26 312.499ZM1754.38 327.499C1745.21 334.128 1739.47 341.943 1737.6 353.413C1735.91 363.775 1738.06 375.586 1744.33 384.141C1747.44 388.377 1751.69 391.826 1757 392.664C1758.87 392.959 1761.58 393.058 1763.21 392.052C1769.79 390.546 1774.44 386.483 1777.94 380.781C1783.83 371.214 1785.31 358.543 1782.55 347.739C1780.64 340.297 1776.57 333.151 1769.76 329.225C1764.78 326.349 1759.87 326.25 1754.38 327.499ZM1870.41 329.499C1857.68 332.576 1798.71 341.107 1791.68 347.293L1791.88 348.277C1794.59 348.767 1796.38 348.837 1799.12 348.194C1825.66 346.429 1853.08 343.128 1879.64 344.304C1880.88 341.601 1881.25 336.195 1880.29 333.409C1879.66 331.563 1878.39 330.29 1876.93 329.059C1874.58 328.719 1872.7 329.072 1870.41 329.499ZM1260.84 337.505C1165.02 343.272 1068.74 345.092 972.819 349.04C979.898 395.03 976.602 469.942 971.224 516.524L987.759 514.083L1162.42 491.825C1196.76 487.623 1231.92 485.037 1265.98 479.143C1273.61 467.954 1281.2 404.001 1281.98 387.598C1282.46 377.66 1282.37 367.54 1280.53 357.734C1279.23 350.771 1276.85 342.343 1272 337.037L1260.84 337.505ZM1597.78 343.498C1600.22 346.753 1601.74 348.29 1605.67 349.384C1609.28 350.388 1618.13 352.2 1621.55 350.502C1621.23 347.769 1621.07 347.68 1619.11 345.722C1613.04 343.608 1604.18 342.335 1597.78 343.498ZM652.196 358.434C641.553 359.032 631.122 359.843 620.56 361.361C611.08 369.807 600.616 390.74 591.414 395.872C588.028 397.76 583.641 398.032 579.853 397.857C569.498 397.378 558.809 394.57 548.515 393.028C539.115 391.619 529.465 391.495 519.972 391.358C505.011 391.142 490.021 392.148 475.105 393.224C463.44 394.066 450.874 395.957 439.25 394.186C429.33 392.676 419.805 387.783 411.83 381.819L390.292 382.154C393.923 386.258 397.459 390.527 401.535 394.199C433.606 420.93 474.171 405.771 512.073 407.399C534.884 408.378 555.957 414.449 578.967 412.334C586.229 411.667 596.222 411.483 602.94 408.8C612.502 404.98 646.04 369.185 656.845 360.084L657.048 358.656C655.275 358.279 653.998 358.196 652.196 358.434ZM1613.52 373.498C1615.07 376.484 1615.7 378.432 1619.18 379.552C1624.57 381.282 1631.11 381.171 1636.73 381.501L1637.13 378.4C1634.73 375.31 1631.67 374.919 1627.91 374.465C1623.3 373.909 1618.15 373.328 1613.52 373.498ZM1617.33 402.498C1617.68 403.989 1617.76 406.038 1619.06 406.879C1623.76 409.928 1641.49 411.324 1647.3 410.778L1648.28 408.207C1646.55 405.608 1645.12 405.261 1642.08 404.652C1634.92 403.22 1624.44 401.187 1617.33 402.498ZM1622.52 431.498C1624.12 434.295 1624.7 436.1 1628.06 437.107C1634.63 439.082 1650.29 441.703 1656.48 439.502L1657.11 436.966C1654.54 433.637 1648.98 433.567 1644.98 433.051C1638.1 432.162 1629.34 430.588 1622.52 431.498ZM826.401 449.634C823.986 463.78 822.167 477.8 814.338 490.178C811.938 493.972 808.235 497.001 810.419 501.484C816.443 498.821 819.273 493.08 821.548 487.182C825.143 477.858 830.004 459.196 826.401 449.634ZM1484.84 458.49C1484.8 458.633 1484.75 458.776 1484.71 458.921C1482.28 468.658 1493.66 480.359 1483.97 489.034C1481.6 489.669 1480.44 489.921 1478.15 488.603C1475.13 486.859 1472.65 483.458 1470.53 480.758C1470.71 483.151 1471.68 486.214 1471.53 488.5C1474.67 492.066 1479.11 498.042 1484.42 498.054C1485.99 498.057 1487.51 497.396 1488.45 496.102C1489.93 494.064 1491.45 489.274 1491.61 486.801C1492.88 478.08 1491.84 467.238 1487.38 459.548L1484.84 458.49ZM1492.14 458.49C1496.92 467.509 1496.62 483.302 1494.16 492.987L1494.06 492.09C1492.91 498.995 1488.11 520.724 1491.78 526.465C1493.66 529.393 1497.85 528.525 1499.58 532.342L1498.28 538.162C1500.13 539.897 1501.73 539.498 1504.16 539.604L1506.63 538.357C1507.22 536.094 1507.36 535.015 1506.21 532.789C1505.28 530.987 1503.91 530.045 1502.05 529.448C1504.21 527.225 1505.97 526.283 1505.77 522.905C1505.73 522.186 1505.65 522.017 1505.47 521.407C1509.27 516.675 1508.39 511.286 1507.78 505.53C1507.39 501.817 1506.44 498.761 1504.38 495.647L1502.88 494.762L1501.03 495.854C1499.68 493.369 1500.18 489.988 1500.96 487.245C1501.45 485.507 1501.52 484.721 1503.18 483.879C1506.16 482.374 1509.85 483.723 1511.34 480.145C1513.99 473.737 1515.8 466.937 1517.6 460.251L1516.31 460.285C1512.47 465.502 1508.87 474.809 1502.42 476.798C1500.44 476.303 1500.01 476.377 1498.84 474.575C1495.82 469.913 1497.79 461.326 1492.14 458.49ZM1631.26 460.499C1631.93 462.837 1631.87 464.614 1634.16 465.851C1638.96 468.455 1657.94 470.956 1663.39 469.583C1664.22 467.488 1664.47 467.466 1663.64 465.244C1657.14 461.204 1639.24 460.436 1631.26 460.499ZM1738.62 462.497C1752.23 482.106 1779.7 508.056 1799.18 522.709C1806.25 528.028 1815.36 532.078 1821.74 538.005C1824.15 536.332 1826.7 534.579 1827.23 531.434C1827.25 531.285 1827.24 531.133 1827.25 530.982C1829.46 529.297 1833.13 526.563 1833.28 523.5C1833.29 523.247 1833.27 522.995 1833.27 522.742C1828.38 519.468 1822.4 517.495 1817.07 515.004C1804.79 509.264 1791.84 503.17 1780.66 495.502C1773.49 490.579 1742.5 463.272 1738.62 462.497ZM1520.07 467.487C1518.51 474.84 1514.09 489.565 1509.21 495.137C1514.29 499.672 1514.12 508.713 1518.31 511.997C1520.25 510.808 1520.64 509.586 1521.44 507.507C1524.35 505.336 1526.08 502.958 1528.06 499.934L1527.63 499.14C1524.48 499.833 1521.75 500.77 1518.73 499.184C1516.85 497.235 1516.05 495.186 1516.07 492.497C1516.14 484.686 1521.91 476.172 1521.29 468.588L1520.07 467.487ZM1740.35 482.497C1746.22 499.339 1780.36 536.87 1780.91 540.488C1787.72 540.824 1804.1 543.295 1809.84 540.501C1807.02 535.132 1793.76 529.353 1788.45 525.638C1778.44 518.632 1768.94 509.773 1760.21 501.198C1756.41 497.475 1744.84 483.944 1741.24 482.757C1740.95 482.659 1740.65 482.584 1740.35 482.497ZM735.378 486.252C738.734 490.556 775.381 505.387 781.896 505.932C782.331 505.968 783.043 505.88 783.435 505.845C783.28 504.15 783.539 502.391 782.189 501.232C775.693 495.652 745.48 489.065 735.378 486.252ZM1628.68 490.497C1629.06 491.506 1629.48 493.677 1630.44 494.103C1634.28 495.812 1661.31 499.903 1665.41 498.502L1666.89 495.38C1663.85 491.703 1650.97 491.262 1646.14 490.808C1640.58 490.285 1634.08 489.065 1628.68 490.497ZM851.467 494.324C840.956 496.115 823.478 496.911 814.466 502.53L814.166 504.077C814.907 504.971 814.942 505.328 816.101 505.634C824.775 504.283 846.964 500.246 852.765 494.455L851.467 494.324ZM1466.88 495.496C1467.01 497.751 1467.19 499.978 1467.46 502.221C1474.36 507.446 1484.05 516.936 1484.86 525.976C1485.07 528.212 1484.66 530.091 1483.16 531.808C1480.98 534.309 1470.92 536.65 1470.36 537.969C1471.49 537.844 1473.18 537.856 1474.23 537.493L1475.2 537.405C1479.75 537.008 1483.23 539.431 1487.59 536.989C1489.85 533.381 1488.18 521.969 1488.08 517.323C1486.45 511.732 1475.15 499.134 1469.94 496.197C1468.91 495.612 1468.05 495.493 1466.88 495.496ZM543.697 496.225C536.68 497.606 530.387 500.484 526.236 506.584C522.947 511.416 522.157 517.396 523.255 523.066C524.472 529.35 528.102 534.069 533.385 537.55C536.639 539.694 539.403 540.417 543.253 540.766L545.255 540.026C545.382 535.263 526.011 519.287 538.433 507.552C541.83 504.343 548.171 501.843 552.876 502.078C557.471 502.308 561.261 504.728 564.179 508.167C565.769 510.04 566.451 511.554 566.391 514.013L564.938 514.748L560.982 513.375C557.711 515.076 556.392 517.467 552.722 518.196C550.205 515.871 549.025 514.017 545.584 513.525C543.281 514.746 542.053 515.238 541.261 517.954C540.4 520.905 541.577 524.703 543.235 527.175C545.289 530.235 548.58 532.002 552.164 532.598C557.575 533.498 562.133 531.203 566.813 528.776L561.553 540.032L592.367 539.756C584.238 524.764 575.51 502.499 557.571 497.395C553.136 496.134 548.283 496.004 543.697 496.225ZM732.463 499.331C736.185 505.047 753.926 508.744 760.5 510.134C766.742 511.453 775.345 513.384 781.418 510.97L780.544 507.332C764.518 505.357 748.471 500.634 732.463 499.331ZM846.766 504.396C838.002 505.15 823.093 504.493 815.982 509.878C814.857 512.041 814.966 513.39 815.086 515.764C815.127 516.582 815.129 517.408 815.15 518.227C820.985 522.589 842.268 518.019 849.739 516.942C851.103 516.745 852.449 516.516 853.794 516.213L854.502 515.264C844.47 512.548 829.809 513.931 819.291 513.608C828.168 512.678 845.28 510.268 852.36 504.926C850.437 503.912 848.879 504.289 846.766 504.396ZM1741.35 508.497C1743.74 513.742 1742.01 518.525 1743.2 523.794C1744.32 528.784 1750.51 535.114 1749.43 540.162C1754.57 540.161 1761.15 540.938 1766.05 539.501C1765.35 535.01 1747.31 514.496 1743.57 509.347L1741.35 508.497ZM731.282 511.18C743.893 518.06 765.54 520.461 779.798 518.568L778.51 515.374C772.177 513.679 763.624 514.98 756.879 514.41C748.296 513.684 739.866 511.924 731.282 511.18ZM1624.45 518.5L1623.46 522.487C1626.39 525.518 1660.08 528.65 1666.28 529.063L1668.53 526.738L1668.2 524.701C1661.32 520.125 1633.58 519.067 1624.45 518.5ZM778.535 521.55C775.489 527.352 762.957 538.083 763.168 539.028L764.395 539.743C769.294 537.296 778.567 532.507 780.62 527.129C781.196 525.621 780.583 523.892 779.666 522.596C779.249 522.006 779.054 521.918 778.535 521.55ZM813.191 521.58L813.447 524.922C819.458 530.06 829.053 535.457 836.358 538.498C832.82 532.775 822.639 523.825 816.091 521.992C815.126 521.722 814.188 521.622 813.191 521.58ZM1266.38 528.5C1238.42 532.581 1209.55 533.751 1181.38 536.32C1171.72 537.2 1160.35 537.121 1151.03 539.663L1152.75 539.855C1191.19 540.511 1229.81 539.399 1268.2 540.542C1269.72 537.678 1271.4 533.802 1270.34 530.54C1270.17 530.007 1270.08 529.83 1269.87 529.356C1268.62 528.856 1267.75 528.587 1266.38 528.5ZM812.578 529.026C810.625 531.661 809.069 532.742 809.216 536.08C813.008 539.496 819.15 538.883 824.081 538.992L825.506 538.134C822.934 534.524 816.724 530.47 812.578 529.026ZM783.86 529.788C781.172 532.246 776.844 535.285 775.669 538.752L777.28 540.093C780.674 539.367 782.65 538.61 785.289 536.331C786.173 534.106 786.327 533.385 785.096 531.106C784.801 530.559 784.321 530.183 783.86 529.788ZM1521.76 533.504L1522.78 535.495L1521.76 533.504ZM166.825 554.936L229.77 764.792L1306.61 765.042L1640.27 764.974C1697.96 764.988 1755.85 764.061 1813.52 765.412C1817.58 760.209 1828.36 725.241 1827.72 719.36C1827.69 719.071 1827.64 718.785 1827.58 718.499C1829 716.858 1829.68 715.397 1830.35 713.368C1834.68 700.313 1875.31 563.127 1875.2 560.968C1875.07 558.537 1874.38 557.82 1873.02 555.873C1863.66 553.179 1801.76 555.065 1788.19 555.066L1533 555.152L166.825 554.936ZM159.006 627.456C126.452 628.276 93.8711 628.308 61.3092 628.934C48.8842 629.173 35.5805 628.345 23.292 629.645C20.4605 629.945 17.9356 630.525 15.4991 632.053L16.8294 633.545L16.7959 631.265L16.3523 633.458C23.2817 634.023 30.106 634.112 37.0558 634.039C83.2165 635.242 130.034 636.745 176.19 635.896L172.388 627.026L159.006 627.456ZM1872.74 627.5C1872.23 629.916 1870.86 633.562 1871.88 635.749C1888.01 636.76 1904.95 635.285 1921.18 635.061Q1973.51 634.238 2025.85 633.95C2029.02 633.629 2029.82 633.876 2032.1 631.456C2031.69 631.083 2031.36 630.593 2030.86 630.338C2028.11 628.916 1887.47 626.805 1873.28 627.471L1872.74 627.5ZM292.726 781.421L293.653 781.65C307.652 785.032 322.07 785.094 336.046 789.336C346.689 792.566 355.849 799.162 366.151 802.569C365.203 795.452 363.918 788.18 363.808 780.999C340.199 780.945 316.292 780.151 292.726 781.421ZM442.498 780.789C461.389 801.041 481.021 820.458 502.46 838.032C637.709 948.893 818.659 999.898 991.166 1005.92C1197.46 1013.13 1432.29 959.357 1586.93 815.153C1592.23 810.212 1606.47 798.372 1608.29 792.122C1611.69 789.814 1617.13 785.665 1617.98 781.445C1618 781.31 1618.01 781.171 1618.02 781.034L1587.82 780.831C1585.85 786.748 1576.92 794.079 1572.27 798.651C1530.42 839.851 1479.86 872.489 1427.53 898.704C1367.59 928.734 1303.16 949.264 1237.73 963.377C1073.4 998.819 898.456 994.348 738.355 941.101C635.258 906.813 549.665 857.545 472.582 780.811L442.498 780.789ZM1683.38 781.499C1684.65 786.476 1685.07 796.884 1682.45 801.317C1682.37 801.455 1682.28 801.587 1682.2 801.723C1691.44 798.938 1730.24 788.887 1735.2 785.942C1741.02 784.685 1746.9 783.598 1752.5 781.509C1739.1 780.71 1725.5 781.111 1712.08 781.078C1702.74 781.055 1692.64 780.319 1683.38 781.499ZM521.18 782.197C523.822 784.409 526.139 785.969 529.518 786.808C554.408 792.99 584.391 794.429 610.205 797.313C625.221 798.991 641.806 802.36 656.795 801.72Q622.527 795.227 588.089 789.712C566.324 786.151 543.258 781.193 521.18 782.197ZM1540.43 782.5C1493.85 786.438 1442.07 791.392 1396.82 802.632L1400.21 802.713Q1468.93 793.51 1538.08 788.605C1540.65 787.102 1543.06 785.739 1545.15 783.588L1545 782.555C1543.45 782.456 1541.98 782.409 1540.43 782.5ZM1011.08 795.489C1016.33 797.641 1026.01 797.868 1031.56 796.532C1025.67 793.914 1017.39 794.874 1011.08 795.489ZM21.8036 799.386C22.5382 801.236 22.601 802.562 24.5593 803.364C28.2549 804.878 80.0608 804.516 88.6864 804.707Q158.893 805.975 229.079 808.053C253.536 808.76 281.008 811.402 304.991 809.761C295.139 805.847 283.031 804.782 272.525 803.932C254.921 802.508 237.066 802.618 219.406 802.152Q168.71 800.709 117.997 800.119L55.9681 799.211C44.7588 799.084 32.9687 798.378 21.8036 799.386ZM1975.25 799.5L1846.23 801.425C1810.72 802.201 1775.19 801.057 1740.47 809.583C1757.66 811.064 1775.96 809.185 1793.25 808.621L1951.18 804.871C1966.88 804.549 2019.13 805.571 2030.73 802.022L2030.71 802.031L2030.6 799.603C2023.38 797.043 1984.95 799.292 1975.25 799.5ZM561.439 812.195C563.715 814.44 565.779 816.165 568.866 817.148C583.157 821.699 676.147 834.977 691.552 834.83C691.693 834.829 691.834 834.824 691.975 834.821C676.442 830.281 659.462 828.208 643.52 825.334C616.25 820.418 589.008 815.163 561.439 812.195ZM1496.22 813.5C1462.58 817.284 1429.44 821.419 1396.18 827.934C1388.42 829.453 1378.8 830.426 1371.53 833.407C1372.64 833.773 1373.08 833.664 1374.21 833.501Q1410.71 828.406 1447.33 824.278C1462.86 822.562 1479.25 821.94 1494.5 818.827C1496.98 817.357 1499.68 816.105 1501.34 813.673C1499.6 812.761 1498.09 813.21 1496.22 813.5ZM1001.12 819.486C1011.35 822.52 1026.54 823.386 1037.06 821.473C1032.51 817.709 1008.66 818.744 1002.49 819.337Q1001.8 819.402 1001.12 819.486ZM1366.76 834.5L1368.47 834.5L1366.76 834.5ZM993.304 842.306C1008.22 845.627 1038.1 847.439 1052.66 843.76C1047.29 840.755 1002.63 841.676 993.304 842.306ZM609.407 845.128C612.097 847.693 614.502 849.28 618.06 850.428C638.922 857.156 663.3 859.09 684.97 862.487C697.655 864.475 712.129 868.104 724.891 867.995C709.687 863.181 693.121 860.739 677.474 857.593C654.937 853.062 632.235 847.953 609.407 845.128ZM1450.38 845.5C1412.21 851.894 1373.89 856.898 1336.57 867.686L1337.71 867.863L1334.96 868.36C1335.86 868.753 1336.26 868.7 1337.2 868.5C1360.08 864.801 1382.91 860.711 1405.81 857.182C1416.59 855.522 1428.07 855.039 1438.65 852.606C1443.72 851.438 1451.39 850.105 1454.92 846.005L1454.24 845.339L1450.38 845.5ZM966.936 865.395C999.995 873.621 1043.29 872.941 1076.99 868.718L1077.56 867.834C1063.72 866.608 1048.98 867.795 1034.99 867.371C1014.07 866.735 986.919 863.599 966.936 865.395ZM660.718 880.031C671.127 886.959 756.927 907.642 771.067 907.026C752.279 902.079 674.292 879.711 660.718 880.031ZM1398.08 880.5Q1350.33 890.074 1303.47 903.338L1304.23 903.845C1318.95 901.08 1394.69 888.318 1400.24 881.148L1398.08 880.5ZM938.274 888.337C976.554 902.392 1071.05 901.838 1110.56 891.502L1111.8 891.479L1112.55 890.556L1113.21 891.188L1114.67 890.418L1112.88 890.164L1111.97 891.254L1111.28 890.193C1051.83 893.92 997.658 893.346 938.274 888.337ZM1298.76 904.5L1300.47 904.5L1298.76 904.5ZM770.262 907.5L771.49 907.5L770.262 907.5ZM1280.33 928.501C1181.9 938.502 1092.35 955.972 992.174 952.153C946.33 950.406 900.512 944.592 855.069 938.496C827.353 934.778 799.315 930.18 771.403 928.61C774.989 930.259 778.671 931.09 782.5 931.986C869.165 950.038 959.321 964.283 1048.04 961.818C1090.12 960.649 1131.7 955.439 1173.33 949.568C1209.45 944.476 1246.02 939.152 1281.45 930.366L1282 928.666C1282.32 928.717 1283.2 929.514 1283.47 929.724L1284.35 928.679L1283.01 928.219L1282.74 929.231L1281.47 928.192L1280.33 928.501Z"/>
	<path fill="#BB4040" transform="scale(0.5 0.5)" d="M463.868 116.138C460.741 116.334 457.377 116.201 454.402 115.133C449.885 113.512 445.952 110.207 443.948 105.8C441.938 101.381 441.859 96.6419 443.623 92.1273C445.996 86.0527 450.506 83.537 456.232 81.0968C459.533 80.9848 463.235 81.459 466.296 82.7326C471.067 84.7174 475.145 88.5672 477.006 93.4309C478.512 97.3646 478.46 101.898 476.687 105.737C474.088 111.364 469.444 114.027 463.868 116.138Z"/>
	<path fill="#BB4040" transform="scale(0.5 0.5)" d="M1749.19 118.822C1748.13 119.021 1747.09 119.082 1746.01 118.953C1740.57 118.299 1733.58 115.253 1730.14 110.866C1727.22 107.144 1726.37 102.691 1726.95 98.0634C1727.76 91.6023 1732.03 88.2878 1736.79 84.4994C1742.14 83.506 1747.52 82.8822 1752.32 85.9101C1757.31 89.0582 1760.6 94.3776 1761.7 100.114C1762.56 104.614 1761.93 109.37 1759.25 113.181C1756.6 116.945 1753.58 118.049 1749.19 118.822Z"/>
	<path fill="#BB4040" transform="scale(0.5 0.5)" d="M1600.79 164.007C1607.76 161.03 1612.98 158.855 1620.49 161.838Q1620.94 162.013 1621.38 162.21Q1621.82 162.408 1622.26 162.627Q1622.69 162.846 1623.11 163.086Q1623.53 163.326 1623.94 163.587Q1624.34 163.848 1624.74 164.129Q1625.13 164.409 1625.51 164.709Q1625.89 165.009 1626.25 165.328Q1626.62 165.646 1626.97 165.983Q1627.31 166.319 1627.64 166.672Q1627.98 167.025 1628.29 167.394Q1628.6 167.763 1628.9 168.147Q1629.19 168.532 1629.46 168.93Q1629.74 169.328 1629.99 169.74Q1630.25 170.151 1630.48 170.575Q1630.71 170.999 1630.93 171.433Q1631.14 171.868 1631.33 172.313C1633 176.255 1633.46 181.543 1631.86 185.578C1631.07 187.557 1630.02 189.17 1628.1 190.167C1626.78 192.341 1624.53 193.622 1622.1 194.271C1617.38 195.531 1612.62 193.901 1608.62 191.407C1604.16 188.635 1599.1 183.858 1597.99 178.51C1596.86 173.05 1601.54 168.401 1600.79 164.007Z"/>
	<path fill="#BB4040" transform="scale(0.5 0.5)" d="M1024.14 283.689C1027.76 279.802 1029.52 274.677 1033.04 270.83C1041.39 261.698 1077.52 261.966 1090.42 261.498C1097.95 261.223 1107.92 260.703 1115.26 262.507C1117.48 263.051 1118.63 263.389 1119.83 265.373C1113.46 269.665 1060.28 273.134 1048.21 274.782C1039.51 276.781 1032.21 280.008 1024.14 283.689Z"/>
	<path fill="#BB4040" transform="scale(0.5 0.5)" d="M366.616 362.167C384.857 350.927 407.62 344.858 427.979 338.535C549.358 300.839 675.171 295.697 801.292 295.043C818.388 294.955 866.701 293.09 880.379 296.038C880.836 296.136 881.431 296.353 881.851 296.494C845.494 298.513 809.09 298.968 772.786 302.113C729.582 305.856 686.76 312.877 643.956 319.658C574.71 331.699 505.528 342.185 437.306 359.403C451.37 351.968 468.013 347.511 483.255 343.075Q501.422 337.829 519.779 333.287Q538.135 328.745 556.653 324.914Q575.171 321.083 593.822 317.97Q612.474 314.856 631.232 312.464C638.057 311.557 645.22 309.753 652.014 309.314C633.972 309.446 614.966 312.239 597.028 314.33C543.624 320.553 489.494 329.202 437.326 342.243Q416.383 347.31 395.754 353.536C386.262 356.403 376.309 360.255 366.616 362.167Z"/>
	<path fill="#BB4040" transform="scale(0.5 0.5)" d="M1253.25 376.73C1253.11 376.819 1252.98 376.92 1252.83 376.995C1241.44 382.71 1236.94 373.298 1228.66 368.785C1225.68 367.161 1221.14 367.051 1217.83 366.132C1215.09 365.371 1213.37 364.19 1211.91 361.691C1211.25 358.65 1211.3 355.719 1212.55 352.808C1215.15 346.786 1227.63 343.958 1233.37 341.497C1243.8 340.595 1253.88 340.574 1264.02 343.593C1268.78 345.007 1274.01 347.189 1276.43 351.821C1278.33 355.442 1277.96 359.117 1276.85 362.897C1273.44 365.709 1270.95 364.423 1267.58 366.362C1261.45 369.891 1261.47 374.179 1253.25 376.73ZM1240.58 349.498C1232.98 349.963 1222.61 349.734 1216.3 354.663L1215.52 356.61C1216.69 358.519 1217.73 359.765 1220.01 360.226C1227.83 361.806 1238.62 359.227 1246.75 358.98C1254.43 358.735 1266.72 359.686 1273.42 356.168L1274.38 354.455C1273.18 352.06 1272.63 351.133 1269.95 350.172C1261.83 347.258 1249.28 349.141 1240.58 349.498Z"/>
	<path fill="#BB4040" transform="scale(0.5 0.5)" d="M1435.48 431.581C1440.2 425.353 1447.58 400.873 1453.31 390.807C1463.85 372.306 1477.29 359.231 1498.09 353.499C1502.44 353.058 1506.74 352.76 1511.1 353.241C1528.12 355.117 1542.61 365.922 1553.08 378.905C1565.97 394.895 1580.73 426.169 1578.48 447.017L1577.32 446.105C1576.85 435.031 1571.54 423.119 1566.66 413.306C1559.74 399.378 1545.65 379.589 1530.11 374.653L1529.33 374.413C1524.65 370.937 1518.14 370.219 1512.48 369.662C1487.37 367.185 1464.85 388.454 1452.01 408.052C1447.46 415 1442.63 426.073 1436.12 431.105C1435.91 431.268 1435.69 431.423 1435.48 431.581Z"/>
	<path fill="#BB4040" transform="scale(0.5 0.5)" d="M366.005 362.749L366.616 362.167L366.005 362.749Z"/>
	<path fill="#BB4040" transform="scale(0.5 0.5)" d="M1485.55 426.108L1487.08 424.994L1485.55 426.108Z"/>
	<path fill="#BB4040" transform="scale(0.5 0.5)" d="M1484.61 426.988L1485.55 426.108L1484.61 426.988Z"/>
	<path fill="#BB4040" transform="scale(0.5 0.5)" d="M1483.76 427.798L1484.61 426.988L1483.76 427.798Z"/>
	<path fill="#BB4040" transform="scale(0.5 0.5)" d="M1828.58 439.93L1831.08 440.91L1828.58 439.93Z"/>
	<path fill="#BB4040" transform="scale(0.5 0.5)" d="M693.117 452.995L693.577 451.861L693.117 452.995Z"/>
	<path fill="#BB4040" transform="scale(0.5 0.5)" d="M1815.88 450.893L1817.64 451.799L1815.88 450.893Z"/>
	<path fill="#BB4040" transform="scale(0.5 0.5)" d="M1504.36 502.917C1502.61 501.327 1501.14 500.015 1498.91 499.106L1503.47 499.626C1504.18 500.996 1504.46 501.34 1504.36 502.917Z"/>
	<path fill="#BB4040" transform="scale(0.5 0.5)" d="M1504.36 502.917L1505.2 503.995L1504.36 502.917Z"/>
	<path fill="#BB4040" transform="scale(0.5 0.5)" d="M1500.8 515.459L1499.36 515.345L1498.58 511.37C1500.35 511.644 1501.41 511.435 1502.6 512.823L1500.8 515.459Z"/>
	<path fill="#BB4040" transform="scale(0.5 0.5)" d="M241.608 749.199C222.595 689.323 205.097 628.944 186.492 568.94L1356.72 569.87L1853.85 570.806C1853.97 571.192 1854.17 571.741 1854.21 572.169C1854.73 577.232 1816.96 704.846 1813.7 708.486C1813.94 709.414 1814.1 710.034 1814.03 711.001C1813.58 716.739 1804.82 745.849 1801.38 749.112C1745.69 750.833 1687.65 749.14 1631.69 749.068L1307.48 749.065L241.608 749.199ZM1796.55 582.501C1785.12 582.873 1773.89 583.424 1762.5 584.505Q1781.61 585.978 1800.75 587.115C1810.14 587.412 1819.6 587.944 1829 587.76L1828.98 587.221C1829.27 587.312 1829.56 587.409 1829.85 587.494C1831.1 587.855 1831.94 587.607 1833.17 587.304C1831.72 586.787 1827.38 586.271 1826.68 585.299C1824.95 582.905 1824.17 582.379 1821.21 581.936C1813.68 580.808 1804.25 582.166 1796.55 582.501ZM219.256 583.033C220.381 585.757 220.675 587.875 223.202 589.475C242.295 590.245 261.661 587.272 280.764 586.718L281.221 586.317C260.668 584.209 239.891 584.035 219.256 583.033ZM225.318 599.413C225.531 601.924 225.704 603.821 227.02 606.056C234.762 609.671 277.995 604.421 288.244 603.677L289.178 603.352C268.145 600.79 246.491 600.684 225.318 599.413ZM1795.25 599.499C1783.39 600.049 1771.31 600.156 1759.55 601.876L1759.51 602.454C1768.4 603.113 1777.3 603.925 1786.21 604.268Q1796 605.098 1805.82 605.159Q1815.65 605.221 1825.45 604.514C1823.38 604.003 1820.64 603.657 1819.26 601.887C1818.9 601.424 1818.69 600.709 1818.51 600.173C1812.53 597.339 1801.78 599.148 1795.25 599.499ZM229.948 616.906C230.877 619.421 231.506 622.404 233.851 623.916C248.21 625.151 277.155 622.854 291.777 620.866L292.225 620.349C271.706 618.628 250.532 616.957 229.948 616.906ZM1779.25 617.498L1752.39 619.515C1763.98 620.944 1782.01 620.278 1792.24 622.707C1801.28 622.938 1810.3 623.249 1819.33 622.679L1820.02 621.985L1814.41 620.383L1814.24 619.519C1814.06 618.612 1813.78 617.799 1813.44 616.938C1803.98 614.963 1789.02 616.838 1779.25 617.498ZM670.211 618.137C657.946 621.08 647.159 626.173 640.212 637.279C634.075 647.088 632.542 659.179 635.178 670.369C637.691 681.038 644.029 690.202 653.399 695.972C665.087 703.169 679.987 703.888 693.054 700.586C704.111 697.792 713.194 692.211 719.084 682.195C720.768 679.332 721.958 676.113 723.137 673.016L699.261 673.316C695.136 678.71 689.937 682.302 683.07 683.156C676.857 683.929 669.458 682.249 664.557 678.248C659.704 674.287 657.308 668.418 656.797 662.282Q656.741 661.647 656.717 661.01Q656.694 660.373 656.703 659.735Q656.711 659.098 656.753 658.462Q656.794 657.826 656.868 657.193Q656.941 656.559 657.047 655.931Q657.153 655.302 657.291 654.68Q657.429 654.057 657.598 653.443Q657.767 652.828 657.968 652.223Q658.168 651.618 658.399 651.023Q658.63 650.429 658.891 649.848Q659.152 649.266 659.442 648.698Q659.732 648.131 660.051 647.579Q660.37 647.027 660.716 646.492Q661.063 645.957 661.436 645.44Q661.81 644.923 662.209 644.426Q662.608 643.929 663.032 643.453C667 639.018 672.538 636.116 678.531 635.9C685.117 635.662 691.995 638.946 696.712 643.407Q698.459 645.085 700.069 646.896L723.589 646.971C719.82 635.942 713.694 627.897 702.984 622.731C692.706 617.774 681.384 617.132 670.211 618.137ZM1361.61 618.498C1348.91 623.063 1338.27 629.272 1332.35 642.112Q1331.91 643.066 1331.52 644.04Q1331.13 645.014 1330.79 646.006Q1330.44 646.998 1330.15 648.005Q1329.86 649.013 1329.61 650.034Q1329.37 651.055 1329.18 652.087Q1328.98 653.118 1328.84 654.158Q1328.7 655.198 1328.61 656.244Q1328.52 657.289 1328.48 658.338Q1328.44 659.387 1328.45 660.436Q1328.46 661.486 1328.53 662.534Q1328.59 663.581 1328.7 664.624Q1328.82 665.668 1328.99 666.704Q1329.15 667.74 1329.37 668.767Q1329.59 669.794 1329.85 670.809Q1330.12 671.824 1330.44 672.825Q1330.75 673.825 1331.12 674.809Q1331.5 675.819 1331.93 676.809Q1332.36 677.799 1332.84 678.767Q1333.31 679.735 1333.84 680.679Q1334.36 681.623 1334.93 682.54Q1335.5 683.457 1336.11 684.346Q1336.72 685.234 1337.38 686.092Q1338.03 686.949 1338.73 687.774Q1339.43 688.598 1340.16 689.388Q1340.9 690.178 1341.67 690.931Q1342.44 691.684 1343.25 692.398Q1344.06 693.113 1344.9 693.787Q1345.75 694.462 1346.62 695.094Q1347.49 695.727 1348.4 696.316Q1349.3 696.905 1350.23 697.45Q1351.17 697.994 1352.12 698.493Q1353.08 698.992 1354.06 699.443C1360.65 702.433 1373.08 704.743 1380.16 702.084C1391.24 700.705 1401.79 695.693 1408.65 686.659C1415.82 677.226 1418.06 664.222 1416.25 652.675Q1416.1 651.669 1415.9 650.672Q1415.7 649.674 1415.45 648.689Q1415.2 647.703 1414.9 646.731Q1414.6 645.758 1414.25 644.803Q1413.9 643.847 1413.51 642.909Q1413.11 641.972 1412.67 641.056Q1412.23 640.14 1411.74 639.247Q1411.25 638.354 1410.72 637.487Q1410.19 636.619 1409.62 635.78Q1409.04 634.94 1408.43 634.13Q1407.81 633.32 1407.15 632.542Q1406.5 631.764 1405.81 631.02Q1405.11 630.276 1404.38 629.568Q1403.65 628.859 1402.89 628.188Q1402.12 627.518 1401.33 626.886Q1400.53 626.254 1399.7 625.663C1388.07 617.235 1375.26 616.946 1361.61 618.498ZM778.927 618.943C767.095 645.705 757.495 673.696 746.748 700.926C754.42 700.797 762.11 700.563 769.781 700.814C771.493 695.926 773.138 691 775.031 686.179L806.061 686.279C807.899 686.851 808.051 686.802 808.971 688.559C810.942 692.326 812.111 696.608 813.421 700.646L836.255 700.702C826.521 673.281 815.275 645.704 803.863 618.932L778.927 618.943ZM863.139 619.012L863.06 700.349L885.227 700.178C885.2 692.877 883.652 672.587 886.204 666.721C887.104 666.682 887.459 666.417 888.143 667.077C894.019 672.742 902.802 698.678 905.965 700.428C906.437 700.689 909.26 700.541 909.959 700.537C912.389 700.522 914.821 700.433 917.25 700.361L932.09 700.291L908.409 666.862C915.817 663.899 923.386 660.672 926.678 652.771C929.037 647.109 928.869 638.742 926.499 633.12C924.176 627.608 919.728 623.971 914.22 621.843C899.621 616.201 878.518 618.859 863.139 619.012ZM1020.87 618.981C1010.38 646.013 1000.43 673.483 988.885 700.073C996.664 700.166 1004.47 700.13 1012.24 700.418L1017.63 687.218L1045.17 687.094C1048.13 687.934 1048.92 688.211 1050.47 690.881C1052.02 693.56 1052.88 697.266 1052.14 700.28C1060.05 700.28 1067.97 700.202 1075.88 700.282C1076.42 696.422 1048.87 624.927 1045.73 620.765C1045.17 620.023 1044.65 619.56 1043.93 618.977L1020.87 618.981ZM1097.57 619.492L1097.7 620.156C1101.73 641.889 1088.65 681.444 1109.37 695.912C1118.33 702.163 1130.79 703.2 1141.26 701.103C1148.81 699.592 1156.16 696.019 1160.38 689.333C1164.63 682.594 1165.73 648.18 1163.67 640.525C1163.38 639.446 1162.86 638.448 1162.27 637.5C1164.69 633.441 1164.93 625.994 1163.5 621.512C1163.21 620.59 1162.82 619.806 1162.27 619.015L1141.45 619.033C1144.47 625.47 1144.11 671.343 1141.58 677.951C1140.62 680.443 1138.81 682.152 1136.36 683.155C1133.12 684.478 1129.27 684.291 1126.08 682.912C1123.34 681.726 1120.85 679.524 1119.87 676.644C1115.33 663.413 1123.64 630.953 1117.54 619.497C1117.45 619.332 1117.37 619.163 1117.29 618.996C1110.89 619.039 1103.88 618.547 1097.57 619.492ZM1188.62 619.496C1190.14 627.572 1190.45 695.974 1187.79 700.072C1204.51 700.161 1240.32 704.589 1252.32 691.282C1252.85 690.692 1253.08 690.214 1253.41 689.499C1259.16 685.746 1262.62 678.477 1264.05 671.916C1266.69 659.812 1264.83 646.267 1257.87 635.916C1251.71 626.756 1243.33 622.052 1232.63 620.049C1219.88 617.663 1201.6 617.585 1188.62 619.496ZM1286.5 619.498C1288.18 627.641 1288.26 695.991 1285.21 700.848C1291.63 700.9 1299.49 701.792 1305.7 700.502C1306.25 699.748 1307.2 698.759 1307.57 697.935C1308.8 695.183 1308.69 627.512 1307.72 622.525C1307.48 621.271 1306.91 620.116 1306.23 619.047C1299.8 619.048 1292.86 618.587 1286.5 619.498ZM235.062 633.82C236.143 636.547 236.891 639.789 239.551 641.313C258.527 642.561 278.692 639.288 297.756 638.461L299.565 637.614C283.073 634.678 252.833 634.904 235.062 633.82ZM1780.37 634.496Q1760.27 635.727 1740.14 636.455C1753.17 638.073 1766.19 638.282 1779.24 639.342C1789.03 639.906 1808.24 642.257 1817.17 639.269L1809.6 637.751L1808.1 634.492C1801.28 632.194 1787.73 633.895 1780.37 634.496ZM241.032 650.822C241.905 653.505 242.458 656.903 244.915 658.52C264.581 659.413 285.046 656.371 304.767 655.528L305.709 654.73C299.289 653.328 292.091 653.575 285.527 653.273C270.762 652.594 255.722 652.43 241.032 650.822ZM1788.25 651.5C1770.85 652.417 1753.38 653.077 1736.01 654.485Q1750.61 655.705 1765.24 656.489C1781.42 657.439 1797.93 658.985 1814.1 657.376L1811.83 657.03L1812.41 656.167L1812.89 657.078C1807.63 655.877 1804.87 655.981 1801.38 651.412C1797.15 650.577 1792.54 651.226 1788.25 651.5ZM246.409 668.46C247.274 671.022 247.816 673.933 250.11 675.557C270.81 675.985 292.119 674.068 312.805 672.803L313.459 672C304.524 669.26 259.794 669.436 246.409 668.46ZM1778.28 669.499C1768.75 670.102 1740.02 669.264 1733.25 672.198C1735.14 673.665 1753.7 673.779 1757.75 674.035C1767.52 674.244 1777.26 674.98 1787.03 675.2C1792.23 675.317 1798.51 674.065 1803.51 675.113L1804.77 672.48L1805.03 674.917L1805.36 674.219C1800.39 673.52 1799.62 671.167 1795.4 669.435C1791.17 667.7 1783 669.253 1778.28 669.499ZM251.96 686.053C252.949 688.782 253.225 691.027 255.594 692.803C274.843 693.505 295.999 691.556 315.254 690.171L316.474 689.496C299.439 686.877 269.369 685.598 251.96 686.053ZM1766.25 687.499C1755.43 687.935 1738.59 686.51 1728.62 690.501Q1743.19 691.181 1757.75 692.022C1771.03 692.664 1784.79 693.881 1798.06 692.844C1796.51 690.042 1793.34 690.394 1791.84 687.268C1783.27 686.698 1774.82 687.09 1766.25 687.499ZM257.152 703.169C258.012 705.684 258.53 708.478 260.857 709.994C273.879 710.705 306.73 708.857 319.733 707.261L320.203 706.44C299.233 704.587 278.12 704.743 257.152 703.169ZM1771.25 704.5C1755.01 705.424 1738.7 706.127 1722.49 707.527C1730.21 708.188 1738 709.082 1745.75 709.169C1752.98 709.579 1790.63 712.785 1794.78 710.02L1794.34 709.945C1781.91 707.755 1790.26 703.138 1771.25 704.5ZM262.902 720.646C263.886 723.519 263.845 725.321 266.548 726.84C286.534 727.43 306.868 725.186 326.892 724.752C324.029 722.159 270.894 720.896 262.902 720.646ZM1768.29 722.5C1759.08 722.913 1726.85 722.603 1719.76 725.479Q1728.5 725.92 1737.24 726.49C1752.72 727.045 1770.43 729.76 1785.63 727.599C1783.7 725.206 1782.23 722.579 1778.99 722.189C1775.49 721.767 1771.79 722.209 1768.29 722.5Z"/>
	<path fill="#BB4040" transform="scale(0.5 0.5)" d="M885.165 654.664C885.068 648.942 883.735 639.039 886.461 634.221C892.186 634.287 899.076 634.226 903.707 638.177C905.424 639.643 905.998 641.155 906.215 643.334C906.556 646.76 904.151 649.869 902.141 652.37C896.888 654.484 890.762 654.332 885.165 654.664Z"/>
	<path fill="#BB4040" transform="scale(0.5 0.5)" d="M1209.14 683.841C1209.21 683.658 1209.29 683.474 1209.37 683.293C1209.46 683.089 1209.56 682.892 1209.64 682.687C1212.05 676.929 1211.84 642.168 1209.61 636.494C1214.11 635.58 1219.35 635.308 1223.87 636.119C1230.11 637.237 1235.98 641.175 1239.59 646.347C1242.94 651.155 1245.07 657.765 1243.86 663.621C1242.72 669.166 1240.27 674.328 1235.45 677.466C1235.11 678.261 1235.24 678.148 1234.7 678.728C1228.7 685.061 1217.06 683.852 1209.14 683.841Z"/>
	<path fill="#BB4040" transform="scale(0.5 0.5)" d="M1375.19 683.75C1371.73 684.09 1368.91 683.953 1365.57 682.869C1359.76 680.984 1355.49 677.6 1352.84 672.047Q1352.57 671.459 1352.32 670.858Q1352.08 670.257 1351.86 669.644Q1351.65 669.032 1351.46 668.41Q1351.27 667.788 1351.12 667.158Q1350.96 666.528 1350.84 665.891Q1350.71 665.254 1350.62 664.612Q1350.53 663.969 1350.47 663.323Q1350.4 662.677 1350.37 662.029Q1350.34 661.381 1350.34 660.732Q1350.34 660.083 1350.38 659.434Q1350.41 658.786 1350.47 658.14Q1350.53 657.494 1350.63 656.852Q1350.72 656.21 1350.85 655.573Q1350.98 654.937 1351.13 654.307Q1351.29 653.677 1351.48 653.055Q1351.66 652.434 1351.88 651.822C1354.82 643.739 1359.69 640.102 1367.23 636.498C1373.22 635.772 1378.59 636.131 1383.85 639.41Q1384.36 639.734 1384.85 640.082Q1385.35 640.431 1385.82 640.804Q1386.3 641.177 1386.76 641.574Q1387.21 641.97 1387.65 642.389Q1388.09 642.807 1388.5 643.247Q1388.91 643.687 1389.31 644.148Q1389.7 644.608 1390.07 645.087Q1390.44 645.566 1390.78 646.063Q1391.12 646.56 1391.44 647.074Q1391.76 647.588 1392.05 648.117Q1392.35 648.646 1392.61 649.188Q1392.88 649.731 1393.12 650.287Q1393.36 650.843 1393.57 651.409Q1393.78 651.976 1393.96 652.553Q1394.14 653.129 1394.29 653.714Q1394.45 654.299 1394.57 654.891C1395.97 661.296 1394.89 668.284 1391.23 673.773C1387.31 679.667 1381.97 682.421 1375.19 683.75Z"/>
	<path fill="#BB4040" transform="scale(0.5 0.5)" d="M780.611 670.145L791.245 640.68C793.831 644.557 802.272 666.478 801.736 670.417L793.761 670.103L780.611 670.145Z"/>
	<path fill="#BB4040" transform="scale(0.5 0.5)" d="M1022.79 670.577C1025.93 662.326 1030.86 652.052 1031.85 643.325C1032.1 643.476 1032.36 643.615 1032.61 643.778C1036.35 646.273 1041.94 665.024 1042.98 669.829C1040.68 671.389 1034.71 670.681 1031.75 670.712L1022.79 670.577Z"/>
	<path fill="#BB4040" transform="scale(0.5 0.5)" d="M1148 814.016C1148.16 814.099 1148.33 814.176 1148.49 814.265C1155.58 818.121 1162.82 829.036 1168.9 834.753C1191.09 855.627 1225.69 864.091 1254.97 856.206C1291.2 846.446 1305.68 825.783 1326.49 797.311C1326.03 798.895 1325.66 799.789 1324.51 800.992C1325.46 805.346 1319.96 813.529 1317.55 817.29C1302.94 840.081 1279.85 858.002 1253.09 863.666C1228.51 868.871 1201.96 862.647 1181.09 848.968C1167.78 840.244 1156.26 827.569 1148 814.016Z"/>
	<path fill="#BB4040" transform="scale(0.5 0.5)" d="M975.642 799.704L975.837 797.1L975.642 799.704Z"/>
	<path fill="#BB4040" transform="scale(0.5 0.5)" d="M974.326 800.764L975.642 799.704L974.326 800.764Z"/>
	<path fill="#BB4040" transform="scale(0.5 0.5)" d="M791.312 814.005C793.956 816.23 796.254 819.199 798.641 821.724C819.997 844.308 845.381 860.994 877.399 861.761C906.803 862.466 937.197 847.726 955.916 825.179C962.019 817.828 967.193 807.394 973.972 801.08C974.087 800.972 974.208 800.869 974.326 800.764C967.798 823.086 945.42 845.422 925.448 856.405C902.922 868.792 878.85 870.616 854.322 863.398C830.651 856.433 804.179 838.141 792.33 816.036Q791.788 815.037 791.312 814.005Z"/>
	<path fill="#BB4040" transform="scale(0.5 0.5)" d="M788.03 808.994L787.25 808.005L788.03 808.994Z"/>
	<path fill="#BB4040" transform="scale(0.5 0.5)" d="M788.03 808.994L789.217 810.545L788.03 808.994Z"/>
	<path fill="#BB4040" transform="scale(0.5 0.5)" d="M789.217 810.545L790.348 812.594L789.217 810.545Z"/>
	<path fill="#BB4040" transform="scale(0.5 0.5)" d="M790.348 812.594L791.312 814.005L790.348 812.594Z"/>
	<path fill="#BB4040" transform="scale(0.5 0.5)" d="M1148 814.016L1147.34 812.295L1148 814.016Z"/>
	<path fill="#BB4040" transform="scale(0.5 0.5)" d="M803.414 861.563L804.221 862.133L803.414 861.563Z"/>
	<path fill="#BB4040" transform="scale(0.5 0.5)" d="M804.221 862.133L806.413 863.37L804.221 862.133Z"/>
	<path fill="#BB4040" transform="scale(0.5 0.5)" d="M806.413 863.37L806.878 863.795L806.413 863.37Z"/>
	<path fill="#BB4040" transform="scale(0.5 0.5)" d="M1172.09 868.005L1173.24 868.937L1172.09 868.005Z"/>
	<path fill="#BB4040" transform="scale(0.5 0.5)" d="M1173.24 868.937L1175.44 869.995L1173.24 868.937Z"/>
	<path fill="#BB4040" transform="scale(0.5 0.5)" d="M1175.44 869.995L1176.35 870.743L1175.44 869.995Z"/>
</svg>
